<?xml version="1.0" standalone="no"?>
<!DOCTYPE svg PUBLIC "-//W3C//DTD SVG 1.1//EN" "http://www.w3.org/Graphics/SVG/1.1/DTD/svg11.dtd" >
<!--
2013-9-30: Created.
-->
<svg>
<metadata>
Created by iconfont
</metadata>
<defs>

<font id="iconfont" horiz-adv-x="1024" >
  <font-face
    font-family="iconfont"
    font-weight="500"
    font-stretch="normal"
    units-per-em="1024"
    ascent="896"
    descent="-128"
  />
    <missing-glyph />
    
    <glyph glyph-name="x" unicode="x" horiz-adv-x="1001"
d="M281 543q-27 -1 -53 -1h-83q-18 0 -36.5 -6t-32.5 -18.5t-23 -32t-9 -45.5v-76h912v41q0 16 -0.5 30t-0.5 18q0 13 -5 29t-17 29.5t-31.5 22.5t-49.5 9h-133v-97h-438v97zM955 310v-52q0 -23 0.5 -52t0.5 -58t-10.5 -47.5t-26 -30t-33 -16t-31.5 -4.5q-14 -1 -29.5 -0.5
t-29.5 0.5h-32l-45 128h-439l-44 -128h-29h-34q-20 0 -45 1q-25 0 -41 9.5t-25.5 23t-13.5 29.5t-4 30v167h911zM163 247q-12 0 -21 -8.5t-9 -21.5t9 -21.5t21 -8.5q13 0 22 8.5t9 21.5t-9 21.5t-22 8.5zM316 123q-8 -26 -14 -48q-5 -19 -10.5 -37t-7.5 -25t-3 -15t1 -14.5
t9.5 -10.5t21.5 -4h37h67h81h80h64h36q23 0 34 12t2 38q-5 13 -9.5 30.5t-9.5 34.5q-5 19 -11 39h-368zM336 498v228q0 11 2.5 23t10 21.5t20.5 15.5t34 6h188q31 0 51.5 -14.5t20.5 -52.5v-227h-327z" />
    

    
    <glyph glyph-name="xue" unicode="&#58915;" d="M734.508118 16.834802c-13.793709 0-24.960484-11.238972-24.960484-24.981974 0-13.796214 11.166775-24.932856 24.960484-24.932856 13.720028 0 24.964578 11.136641 24.964578 24.932856C759.472696 5.59583 748.228147 16.834802 734.508118 16.834802zM586.202461 16.834802c-13.744589 0-24.957414-11.238972-24.957414-24.981974 0-13.796214 11.212825-24.932856 24.957414-24.932856 13.770172 0 24.987091 11.136641 24.987091 24.932856C611.189552 5.59583 599.972633 16.834802 586.202461 16.834802zM437.847683 16.834802c-13.744589 0-24.936947-11.238972-24.936947-24.981974 0-13.796214 11.193382-24.932856 24.936947-24.932856 13.796779 0 25.009605 11.136641 25.009605 24.932856C462.857288 5.59583 451.644462 16.834802 437.847683 16.834802zM289.568633 16.834802c-13.774266 0-24.937971-11.238972-24.937971-24.981974 0-13.796214 11.163705-24.932856 24.937971-24.932856 13.766079 0 24.956391 11.136641 24.956391 24.932856C314.524 5.59583 303.334712 16.834802 289.568633 16.834802zM702.370894-104.356374c-13.747659 0-24.986068-11.192923-24.986068-24.935925 0-13.793144 11.238409-24.981974 24.986068-24.981974 13.767102 0 25.009605 11.189853 25.009605 24.981974C727.380499-115.549298 716.137996-104.356374 702.370894-104.356374zM553.989509-104.356374c-13.720028 0-24.911363-11.192923-24.911363-24.935925 0-13.793144 11.191335-24.981974 24.911363-24.981974 13.796779 0 25.009605 11.189853 25.009605 24.981974C578.999114-115.549298 567.786288-104.356374 553.989509-104.356374zM405.679758-104.356374c-13.716958 0-24.960484-11.192923-24.960484-24.935925 0-13.793144 11.242503-24.981974 24.960484-24.981974 13.770172 0 25.012675 11.189853 25.012675 24.981974C430.692433-115.549298 419.44993-104.356374 405.679758-104.356374zM257.374101-104.356374c-13.743565 0-25.009605-11.192923-25.009605-24.935925 0-13.793144 11.26604-24.981974 25.009605-24.981974 13.747659 0 25.036212 11.189853 25.036212 24.981974C282.410313-115.549298 271.121759-104.356374 257.374101-104.356374zM821.676912 599.56368c-0.735787 0.457418-1.12466 1.173732-1.962782 1.632173-2.355747 1.326205-4.85988 2.40477-7.386527 3.730974-1.12466 0.514723-2.302533 1.124614-3.399562 1.684362-30.121229 15.171538-62.104951 24.52865-94.807064 27.901467C664.711683 708.647097 580.531066 754.274274 491.217335 754.274274c-120.434771 0-224.105053-78.685084-257.011835-193.286168-2.706756-0.77055-5.343924-1.840928-7.996442-2.813069-2.96464-1.02126-5.853551-1.940189-8.712786-3.063779-45.247337-17.729803-83.006837-48.127114-109.704966-86.50212-0.076751-0.155543-0.22923-0.254803-0.282444-0.304945-3.753641-5.369288-7.17674-10.834766-10.496482-16.452717-0.335658-0.662079-0.742951-1.333368-1.074516-2.042519-2.988177-5.160533-5.747123-10.480702-8.300377-15.896038-0.511674-0.914836-0.89543-1.886977-1.35696-2.858094-2.424312-5.362124-4.649071-10.777461-6.692697-16.301268-0.228207-0.765433-0.614009-1.375324-0.868823-2.091638 0-0.050142 0-0.25992-0.103358-0.309038-9.169199-25.64917-14.329944-53.185316-14.329944-81.802074 0-133.249817 108.397127-241.565754 241.579746-241.565754l380.410223 0c150.833327 0 273.43862 122.672924 273.43862 273.556353C959.715317 463.65122 904.352184 552.351402 821.676912 599.56368zM686.275674 138.901928 305.865452 138.901928c-105.664788 0-191.609657 85.987397-191.609657 191.647855 0 31.883151 8.076263 62.083987 22.124787 88.803535 0.89543 1.786693 1.684431 3.578502 2.656612 5.262864 4.089299 7.257288 8.766 14.204513 13.873531 20.947078 1.40301 1.790786 2.705732 3.681856 4.16605 5.468548 5.134138 6.285147 10.755389 12.208043 16.628384 17.833157 1.737645 1.635243 3.476314 3.319605 5.366438 5.003967 6.105295 5.41636 12.748871 10.530844 19.647261 15.126512 1.688524 1.173732 3.47222 2.347464 5.209865 3.422959 7.691485 4.801353 15.687927 9.195429 24.118269 12.927427 0.94455 0.411369 1.966875 0.86981 2.888912 1.226944 9.555001 4.085038 19.414961 7.512091 29.686306 9.961886 0 0 0.075728 0 0.179086 0.054235 23.249446 5.720282 47.770914 7.306406 72.605526 3.677762 13.491822-1.997494 26.26423 7.404644 28.306833 21.048385 1.966875 13.640672-7.431554 26.312272-21.076878 28.305673-16.758349 2.40477-33.467577 2.911306-49.870824 1.840928 33.417433 79.759555 111.236918 132.894729 200.452408 132.894729 62.207286 0 119.304995-26.110681 160.082348-70.864978-13.237008-1.794879-26.366564-4.13825-39.500214-7.873318-70.281503-19.871583-128.605182-65.956178-164.270911-129.724527-6.692697-12.004405-2.450919-27.234271 9.683943-33.979906 3.858022-2.145873 7.919691-3.168156 12.131792-3.168156 8.73837 0 17.249556 4.649903 21.793222 12.774955 29.125511 52.118008 76.823767 89.772606 134.333885 106.067734 23.480723 6.646374 47.394322 9.146311 71.046967 8.125051 0.69383-0.103354 1.302722-0.354064 2.046696-0.354064 118.439242-6.490831 211.306038-104.285135 211.306038-222.819808C909.8711 239.200262 809.54512 138.901928 686.275674 138.901928z"  horiz-adv-x="1024" />

    
    <glyph glyph-name="jinggao" unicode="&#58890;" d="M512 812C230.4 812 0 581.6 0 300s230.4-512 512-512 512 230.4 512 512S793.6 812 512 812zM512-20c-32 0-64 32-64 64s32 64 64 64 64-32 64-64S544-20 512-20zM524.8 210.4c0-19.2-25.6-19.2-32 0L448 556c0 0 12.8 57.6 64 64 51.2 0 64-64 64-64L524.8 210.4z"  horiz-adv-x="1024" />

    
    <glyph glyph-name="liuyan" unicode="&#58986;" d="M512 844.8C243.712 844.8 17.06666667 652.0832 17.06666667 423.97013333c0-106.97386667 49.3568-207.32586667 139.24693333-283.76746666l-58.88-195.00373334c-1.9968-6.656 0.22186667-13.85813333 5.61493333-18.19306666C106.15466667-75.51999999999998 109.96053333-76.79999999999995 113.78346667-76.79999999999995c2.83306667 0 5.66613333 0.69973333 8.2432 2.13333333l212.92373333 117.53813334c56.49066667-17.80053333 116.00213333-26.8288 177.0496-26.8288 272.896 0 494.93333333 183.00586667 494.93333333 407.92746666C1006.93333333 652.0832 780.288 844.8 512 844.8zM512 50.15893332999997c-59.97226667 0-118.34026667 9.23306667-173.48266667 27.40906667-4.5056 1.536-9.45493333 1.05813333-13.60213333-1.26293333l-182.6816-100.84693334 50.0224 165.70026667c1.9968 6.656-0.22186667 13.84106667-5.61493333 18.19306667C99.31093333 230.04160000000002 51.2 324.02773333000005 51.2 423.97013333 51.2 633.5829333300001 262.21226667 810.66666667 512 810.66666667s460.8-177.08373333 460.8-386.69653334C972.8 217.856 766.08853333 50.15893332999997 512 50.15893332999997zM750.93333333 571.73333333L307.2 571.73333333c-9.4208 0-17.06666667-7.64586667-17.06666667-17.06666666s7.64586667-17.06666667 17.06666667-17.06666667l443.73333333 0c9.43786667 0 17.06666667 7.64586667 17.06666667 17.06666667S760.3712 571.73333333 750.93333333 571.73333333zM682.66666667 435.2L307.2 435.2c-9.4208 0-17.06666667-7.64586667-17.06666667-17.06666667s7.64586667-17.06666667 17.06666667-17.06666666l375.46666667 0c9.43786667 0 17.06666667 7.64586667 17.06666666 17.06666666S692.10453333 435.2 682.66666667 435.2zM614.4 298.66666667000004L307.2 298.66666667000004c-9.4208 0-17.06666667-7.6288-17.06666667-17.06666667s7.64586667-17.06666667 17.06666667-17.06666667l307.2 0c9.43786667 0 17.06666667 7.6288 17.06666667 17.06666667S623.83786667 298.66666667000004 614.4 298.66666667000004z"  horiz-adv-x="1024" />

    
    <glyph glyph-name="icon048" unicode="&#58938;" d="M511.31-86.322c-3.446 0-6.892 1.003-9.88 2.957-68.229 44.592-409.82 278.38-435.305 500.824-7.982 69.099 14.249 128.782 67.905 182.465 35.554 40.251 86.28 62.398 142.923 62.398 80.88 0 165.665-44.945 232.593-123.327l17.181-11.725-13.732 11.751c67.009 78.357 151.769 123.301 232.538 123.301 56.617 0 107.344-22.12 142.815-62.288 54.063-54.12 76.428-114.155 68.449-183.635-25.674-221.79-367.373-455.229-435.605-499.765-3.015-1.981-6.436-2.956-9.882-2.956zM276.952 626.171c-46.14 0-87.231-17.779-115.729-50.048-0.434-0.517-1.762-1.901-2.251-2.334-44.756-44.781-63.59-94.774-56.967-152.202 22.77-198.752 339.42-421.303 409.334-468.175 83.729 55.745 386.78 270.21 409.578 467.141 6.623 57.81-12.348 108.13-58.027 153.806-0.381 0.408-1.6 1.709-1.953 2.118-28.2 31.916-69.291 49.695-115.403 49.695-70.211 0-144.957-40.332-205.074-110.653-14.736-17.070-43.642-17.097-58.324-0.025-60.117 70.345-134.889 110.677-205.183 110.677z"  horiz-adv-x="1024" />

    
    <glyph glyph-name="jiage" unicode="&#58918;" d="M858.320901 167.455595 523.175207 167.455595 523.175207 397.449956l335.149787 0c25.943469 0 47.173292-7.248534 47.173292 18.703122 0 25.957796-21.229824 21.774257-47.173292 21.774257L536.376688 437.927335 843.658046 764.669109c8.954493 9.295275 15.264596 21.064038 4.519205 31.468647-11.939665 11.51292-27.460104 4.093483-33.449892-3.220547l-311.258176-329.878405L200.099147 792.783146C186.274433 807.176854 176.675217 808.2473 167.806687 800.742923c-6.651909-6.586413-14.497068-14.209501 3.848897-32.821543l299.669527-329.993022L147.565439 437.928358c-25.948586 0-47.176363 4.181492-47.176363-21.773233 0-25.952679 21.227777-18.704145 47.176363-18.704145l335.220399 0 0-229.991291L147.565439 167.459688c-25.948586 0-47.176363 4.958231-47.176363-20.992402 0-25.954726 21.227777-20.512441 47.176363-20.512441l335.283848 0 0-290.766203c0-25.951656-7.256721-47.188643 18.689818-47.188643s21.633032 21.236987 21.633032 47.188643L523.172137 125.954846l335.148763 0c25.946539 0 47.177386-5.442285 47.177386 20.512441C905.498286 172.416896 884.272556 167.455595 858.320901 167.455595z"  horiz-adv-x="1024" />

    
    <glyph glyph-name="iconfontshouji" unicode="&#58912;" d="M726.5781-135.106726 307.312154-135.106726c-30.607088 0-55.510268 25.003464-55.510268 55.736419l0 758.740614c0 30.732955 24.90318 55.736419 55.510268 55.736419l419.265946 0c30.607088 0 55.510268-25.003464 55.510268-55.736419l0-758.740614C782.088368-110.103262 757.185188-135.106726 726.5781-135.106726zM307.312154 707.912363c-15.615653 0-28.315906-12.806677-28.315906-28.542056l0-758.740614c0-15.735379 12.701277-28.542056 28.315906-28.542056l419.265946 0c15.615653 0 28.315906 12.806677 28.315906 28.542056l0 758.740614c0 15.735379-12.701277 28.542056-28.315906 28.542056L307.312154 707.912363zM432.379615 649.686241l162.705686 0 0-27.629267-162.705686 0 0 27.629267ZM519.15905-73.919155c-26.238594 0-47.589878 21.351284-47.589878 47.589878 0 26.238594 21.351284 47.589878 47.589878 47.589878 26.238594 0 47.589878-21.351284 47.589878-47.589878C566.748928-52.567871 545.396621-73.919155 519.15905-73.919155zM519.15905 7.662909c-18.742876 0-33.993209-15.250332-33.993209-33.993209 0-18.742876 15.250332-33.993209 33.993209-33.993209 18.742876 0 33.993209 15.250332 33.993209 33.993209C553.151235-7.587424 537.900903 7.662909 519.15905 7.662909zM242.044662 554.518764l27.629267 0 0-54.235229-27.629267 0 0 54.235229ZM242.044662 486.980555l27.629267 0 0-55.258535-27.629267 0 0 55.258535Z"  horiz-adv-x="1024" />

    
    <glyph glyph-name="mjiantou" unicode="&#58910;" d="M683.9808 384 267.6224 800.3328 303.8208 836.5568 720.4608 419.9168 756.3776 384 303.8208-68.5568 267.6224-32.3328Z"  horiz-adv-x="1024" />

    
    <glyph glyph-name="lianxiwomen-f" unicode="&#58906;" d="M550.43413333 767.3856000000001c190.53226667 0 345.01973333-154.48746667 345.01973334-345.01973333 0-10.58133333 8.6016-19.18293333 19.18293333-19.18293334 10.58133333 0 19.18293333 8.6016 19.18293333 19.18293334 0 211.7632-171.6224 383.3856-383.3856 383.3856-10.58133333 0-19.18293333-8.6016-19.18293333-19.18293334C531.2512 775.91893333 539.8528 767.3856000000001 550.43413333 767.3856000000001M550.43413333 575.6928c84.71893333 0 153.32693333-68.67626667 153.32693334-153.3952 0-10.58133333 8.6016-19.18293333 19.18293333-19.18293333 10.58133333 0 19.18293333 8.6016 19.18293333 19.18293333 0 105.8816-85.8112 191.6928-191.6928 191.6928-10.58133333 0-19.18293333-8.6016-19.18293333-19.18293333C531.2512 584.22613333 539.8528 575.6928 550.43413333 575.6928M550.43413333 384c21.16266667 0 38.36586667 17.2032 38.36586667 38.2976 0 21.16266667-17.2032 38.36586667-38.36586667 38.36586667-21.16266667 0-38.36586667-17.2032-38.36586666-38.36586667C512.13653333 401.2032 529.27146667 384 550.43413333 384M933.2736 135.09973333000005c0 15.83786667-6.41706667 30.24213333-16.86186667 40.68693334-3.072 3.072-6.48533333 5.66613333-10.24 7.9872l-162.26986666 126.22506666c-10.4448 10.37653333-24.7808 16.86186667-40.68693334 16.86186667-12.97066667 0-24.84906667-4.5056-34.47466666-11.81013333L623.54773333 269.38026666999997 623.4112 269.44853333000003c-7.03146667-7.85066667-17.06666667-12.83413333-28.4672-12.83413333-12.97066667 0-24.3712 6.48533333-31.3344 16.31573333C563.4048 272.5888 563.06346667 272.17920000000004 562.7904 271.76959999999997 500.18986667 317.23519999999996 444.68906667 371.98506667000004 399.29173333 434.65386667c0.4096 0.27306667 0.8192 0.6144 1.29706667 0.88746666C390.5536 442.5728 384 454.10986667 384 467.28533333c0 11.74186667 5.3248 22.1184 13.58506667 29.21813334L397.5168 496.50346667l45.056 44.71466666c7.30453333 9.55733333 11.74186667 21.43573333 11.74186667 34.4064 0 15.83786667-6.41706667 30.24213333-16.86186667 40.68693334L311.296 778.6496C309.0432 782.26773333 306.44906667 785.8176 303.37706667 788.82133333 292.93226667 799.26613333 278.59626667 805.6831999999999 262.69013333 805.6831999999999c-76.66346667 0-172.50986667-90.112-172.50986666-201.25013333 0-30.78826667 7.09973333-59.86986667 19.456-85.94773334L109.02186667 517.80266667c115.3024-229.64906667 306.9952-421.34186667 536.71253333-536.71253334l0.6144 0.6144c26.07786667-12.35626667 55.15946667-19.456 85.94773333-19.456 111.13813333 0 201.25013333 95.8464 201.25013334 172.50986667 0 0.06826667 0 0.2048 0 0.27306667L933.2736 135.03146667zM732.29653333 0.614400000000046c-24.02986667 0-47.44533333 5.3248-69.56373333 15.7696-2.048 0.95573333-4.23253333 1.77493333-6.41706667 2.32106667-217.9072 111.2064-398.47253333 291.70346667-509.67893333 509.5424C146.09066667 530.50026667 145.33973333 532.75306667 144.31573333 534.86933333 133.80266667 556.9877333300001 128.54613333 580.4032 128.54613333 604.43306667c0 92.9792 81.37386667 162.95253333 134.144 162.95253333 6.89493333 0 11.4688-3.54986667 13.58506667-5.59786667 0.47786667-0.47786667 1.36533333-1.50186667 2.59413333-3.54986666 0.68266667-1.09226667 1.4336-2.11626667 2.18453334-3.14026667l126.22506666-162.26986667C408.23466667 591.5306666700001 409.32693333 590.37013333 410.4192 589.2096c2.11626667-2.11626667 5.59786667-6.69013333 5.59786667-13.58506667 0-3.41333333-0.95573333-6.62186667-2.79893334-9.55733333L370.55146667 523.74186667C370.34666667 523.5370666700001 370.14186667 523.4005333299999 369.93706667 523.12746667 354.5088 508.58666667 345.63413333 488.37973333 345.63413333 467.28533333c0-19.79733333 7.71413333-38.7072 21.02613334-52.8384 0.47786667-0.75093333 0.95573333-1.50186667 1.50186666-2.2528 47.104-65.1264 104.99413333-122.81173333 172.10026667-171.48586666 0.54613333-0.34133333 1.024-0.75093333 1.57013333-1.09226667 14.1312-13.58506667 33.1776-21.43573333 53.0432-21.43573333 20.00213333 0 39.3216 7.9872 53.6576 22.05013333 0.75093333 0.6144 1.4336 1.29706667 2.11626667 1.97973333l42.93973333 43.28106667c3.00373333 1.91146667 6.21226667 2.8672 9.55733334 2.8672 6.89493333 0 11.4688-3.54986667 13.58506666-5.59786667 1.16053333-1.16053333 2.32106667-2.18453333 3.54986667-3.20853333l162.26986667-126.22506667c1.024-0.8192 2.11626667-1.57013333 3.20853333-2.2528 2.048-1.29706667 2.93546667-2.11626667 3.41333333-2.52586666 2.11626667-2.11626667 5.59786667-6.62186667 5.59786667-13.58506667 0-1.29706667 0.06826667-2.59413333 0.2048-3.8912C892.1088 78.50666666999996 823.22773333 0.614400000000046 732.29653333 0.614400000000046"  horiz-adv-x="1024" />

    
    <glyph glyph-name="tuijian" unicode="&#58898;" d="M78.769231 541.538462 787.692308 541.538462 551.384615 777.846154 551.384615 856.615385 945.230769 462.769231 78.769231 462.769231 78.769231 541.538462ZM551.384615-88.615385 551.384615-9.846154 787.692308 226.461538 78.769231 226.461538 78.769231 305.230769 945.230769 305.230769 551.384615-88.615385Z"  horiz-adv-x="1024" />

    
    <glyph glyph-name="faxian" unicode="&#58881;" d="M512 896C230.4 896 0 665.6 0 384c0-281.6 230.4-512 512-512 281.6 0 512 230.4 512 512C1024 665.6 793.6 896 512 896zM512-89.6C250.88-89.6 38.4 122.88 38.4 384 38.4 645.12 250.88 857.6 512 857.6c261.12 0 473.6-212.48 473.6-473.6C985.6 122.88 773.12-89.6 512-89.6zM752.64 650.24l-348.16-145.92c-5.12-2.56-7.68-5.12-10.24-10.24L245.76 143.36c-2.56-7.68-2.56-15.36 5.12-20.48 2.56-2.56 7.68-5.12 12.8-5.12 2.56 0 5.12 0 7.68 2.56l348.16 145.92c5.12 2.56 7.68 5.12 10.24 10.24l145.92 348.16c2.56 7.68 2.56 15.36-5.12 20.48C768 650.24 757.76 652.8 752.64 650.24zM596.48 299.52l-296.96-125.44 125.44 296.96 296.96 125.44L596.48 299.52zM509.44 327.68c33.28 0 58.88 28.16 58.88 58.88 0 33.28-28.16 58.88-58.88 58.88s-58.88-28.16-58.88-58.88C450.56 353.28 476.16 327.68 509.44 327.68zM509.44 407.04c12.8 0 20.48-10.24 20.48-20.48 0-12.8-10.24-20.48-20.48-20.48-12.8 0-20.48 10.24-20.48 20.48C488.96 399.36 499.2 407.04 509.44 407.04z"  horiz-adv-x="1024" />

    
    <glyph glyph-name="icwalkcopy2x" unicode="&#58899;" d="M403.969113 272.259371C402.784217 265.310891 416.800302 115.740629 163.343235-3.248 133.317891-17.357739 119.807833-54.447488 133.132931-86.125739 143.005315-109.569408 164.717443-123.444267 187.505753-123.444267 195.595694-123.444267 203.762307-121.722453 211.627054-118.034816 418.246403-21.043328 488.76459 96.962432 511.589294 178.701397 583.554521 143.846699 692.227289 69.046656 710.971566-69.500629 715.609731-103.842091 745.783641-127.681536 778.261251-122.819712 810.772441-117.876907 833.337475-86.086272 828.698329-51.742763 802.210094 144.123733 658.030979 245.719723 562.277721 292.358827 549.408899 326.335061 542.546819 354.276693 539.283075 377.358421 619.084505 334.645419 723.178414 314.104704 832.410798 371.822976 861.768195 387.305301 873.680814 425.021611 858.983385 456.070272 844.322435 487.08352 808.581763 499.665749 779.224366 484.141909 633.809497 407.300181 511.739737 553.026347 506.76523 559.061376 493.219715 575.800875 472.36139 583.917099 451.761881 580.270976 363.466286 564.705664 196.561667 486.416427 196.52331 301.214677 196.52331 266.557355 223.135235 238.409813 255.980846 238.409813 288.828377 238.409813 315.440302 266.51584 315.439321 301.214677 315.439321 365.482667 355.119662 404.397611 394.460249 427.181653 392.745177 390.990891 396.575833 347.646507 410.189187 296.711168 410.189187 296.711168 406.109913 284.813013 403.969113 272.259371ZM623.282435 769.329408C623.282435 699.38816 569.577561 642.659797 503.364995 642.659797 437.152473 642.659797 383.445678 699.38816 383.445678 769.329408 383.445678 839.271637 437.152473 895.999957 503.364995 895.999957 569.577561 895.999957 623.282435 839.271637 623.282435 769.329408L623.282435 769.329408Z"  horiz-adv-x="1024" />

    
    <glyph glyph-name="fenxiang-copy" unicode="&#58916;" d="M616.02666667 786.44693333l374.98773333-375.61813333-374.98773333-375.61706667v214.63573334c0 0-372.0672 41.35786667-589.26186667-268.2976 0 0 68.44053333 590.25386667 589.26186667 590.25386666v214.6432z"  horiz-adv-x="1024" />

    
    <glyph glyph-name="weibiaoti1zhuanhuan" unicode="&#58882;" d="M1001.696-83.04l-22.624-22.656c-6.24-6.24-16.384-6.24-22.656 0l-242.688 242.688c-75.68-65.28-173.984-104.992-281.76-104.992C193.408 32.032 0 225.44 0 464c0 238.592 193.408 432 432 432 238.592 0 432-193.408 432-432 0-107.776-39.712-206.08-104.992-281.76l242.688-242.688C1007.936-66.656 1007.936-76.8 1001.696-83.04zM432 832C228.736 832 64 667.264 64 464c0-203.232 164.768-368 368-368 203.264 0 368 164.736 368 368C800 667.264 635.232 832 432 832z"  horiz-adv-x="1024" />

    
    <glyph glyph-name="dianhua" unicode="&#58891;" d="M915.456386 116.264424c14.67844-24.442984 13.507133-50.753006-2.123679-74.604863-30.243571-46.134673-78.023913-102.144575-133.155638-117.685379-10.417703-2.943472-21.459374-4.043017-32.260215-4.043017-49.742251 0-108.200587 22.369174-149.555158 49.835907-19.172709 12.735992-37.689826 27.567687-55.348228 42.314241-23.47845 19.605716-46.279414 40.137044-68.545202 61.107461-58.831743 55.422423-114.852591 114.766233-167.046925 176.452658-43.878416 51.854983-85.741406 105.691337-121.604333 163.463673-38.983981 62.801782-74.849341 136.901876-84.6224 210.913179-0.155688 1.194417-0.336918 2.385186-0.510851 3.571089-2.678317 18.031809-3.546763 34.068869-0.779655 52.274611 4.578194 30.119507 17.986806 57.34906 36.413916 81.396743 3.485947 4.549003 7.437741 8.941102 11.360344 13.114264 5.851672 6.227512 11.998907 12.209329 18.343185 17.933288 15.904482 14.351253 33.627348 27.619988 52.521522 37.764021 19.270014 10.347157 40.953189 17.994104 63.043828 17.994104 14.34882 0 28.147867-3.336341 40.720873-10.259583 10.253501-5.649764 22.006713-17.239991 29.697447-25.886745 15.507964-17.437033 27.973935-37.745777 36.894359-59.290292 1.841495-4.451698 3.71583-8.892449 5.591381-13.331984 17.316619-41.062657 35.737647-85.635587 38.540028-130.620846 0.86723-13.92676-0.301645-26.200554-6.765121-38.844106-9.421544-18.428327-27.627286-31.953704-45.195681-41.996783-10.18782-5.823697-26.012025-15.78285-28.528573-28.347342-1.635938-8.171177 2.203955-17.035651 6.101016-24.009978 16.414116-29.375125 34.821765-57.812474 54.286389-85.247583 28.775484-40.559104 60.229284-79.3205 93.412679-116.345005 9.443438-10.539334 19.685992-20.52403 30.297089-29.883543 12.905059-11.382238 26.936422-22.409312 41.583238-31.468396 8.634591-5.340821 22.333901-12.962225 32.601998-13.879324 0.276103-0.024326 0.552205-0.037706 0.829524-0.037706 10.388512 0 26.071625 12.337042 33.364625 18.883227 3.856922 3.460405 7.618972 7.020547 11.381021 10.583121 13.743097 13.020608 28.721966 28.130839 49.019763 28.130839 8.845013 0 17.111062-2.843735 24.790849-7.069199l0.142308-0.077844 0.609372-0.370975 158.487745-104.228115 0.068113-0.047436C899.332968 137.654468 909.396725 126.356156 915.456386 116.264424L915.456386 116.264424zM875.090675 123.204694l-157.624165 103.658882c-3.634337 1.955828-7.880478 3.672043-12.054858 3.672043-0.748031 0-1.492413-0.05595-2.231931-0.164202-9.714675-1.436463-22.310791-14.429096-29.192678-20.94609-3.929901-3.724344-7.862234-7.437741-11.891872-11.05505-12.968307-11.641312-32.333193-25.425763-50.444063-25.425763-1.028999 0-2.060431 0.04622-3.08943 0.136227-38.497457 3.433646-95.909765 55.339714-121.27228 83.644486-33.862096 37.782266-65.948378 77.341562-95.307691 118.733839-19.969393 28.153949-38.845322 57.332032-55.688795 87.472216-9.30113 16.645215-13.796615 35.26207-5.011201 53.134543 7.508287 15.272 22.708525 25.859986 37.096267 34.087114 12.619226 7.21394 27.600527 17.510012 34.630804 30.697255 4.55995 8.553098 5.044041 16.771711 4.455347 26.237043-2.578579 41.422685-20.61647 84.368191-36.569604 122.212489-1.895012 4.494269-3.792457 8.987321-5.654629 13.492537-7.443823 17.978292-17.8372 35.075974-30.468589 49.888209-6.105881 7.160422-16.450605 18.02816-24.796931 22.62095-8.7769 4.836052-18.380891 7.087444-28.393562 7.087444-21.10786 0-43.053758-9.874012-60.753514-20.693098-13.802696-8.436333-26.888985-18.523199-38.869648-29.382423-8.852311-8.022787-18.052487-17.198636-25.333324-26.698025-15.762173-20.567818-27.403485-43.85409-31.334602-69.630151-2.376672-15.585808-1.565392-29.184164 0.722489-44.60577 0.199475-1.329428 0.395301-2.657639 0.571666-3.991932 6.362522-48.197536 24.837069-96.088563 46.568896-139.328416 23.628056-47.011633 52.723429-91.83634 83.896262-134.177339 22.234164-30.199784 45.689503-59.01419 69.898956-87.621822 50.425818-59.59437 104.635579-116.960458 161.286477-170.67883 22.839886-21.657632 46.240492-42.87496 70.372101-63.087615 17.169445-14.38166 35.224364-28.908062 53.892304-41.307135 36.652313-24.346896 91.381439-45.567872 135.410678-45.567872 8.427818 0 17.194987 0.783304 25.329675 3.077267 48.397011 13.649441 92.209747 66.681814 118.685187 107.070634 9.998076 15.253755 11.211954 30.846861 2.021509 46.696609C889.631672 109.903118 882.224339 118.193493 875.090675 123.204694z"  horiz-adv-x="1024" />

    
    <glyph glyph-name="bianji" unicode="&#59318;" d="M940.79936-19.01c0-42.46-34.53-76.99-76.99-76.99L119.23136-96C76.79936-96 42.23936-61.47 42.23936-19.01L42.23936 787.008C42.23936 829.44 76.79936 864 119.23136 864l546.019 0L665.25036 896 119.23136 896C59.13436 896 10.23936 847.105 10.23936 787.008L10.23936-19.01C10.23936-79.1 59.13436-128 119.23136-128L863.80936-128c60.09 0 108.99 48.9 108.99 108.99L972.79936 547.586l-32 0L940.79936-19.01zM251.13336 326.819c-0.67-0.9-1.503-1.63-2.015-2.69L115.55136 48.29c-13.6-28.1-7.327-43.14 0.32-50.75 4.382-4.39 11.167-8.32 21.44-8.32 7.68 0 17.312 2.17 29.312 8l275.774 133.57c2.145 1.02 3.872 2.52 5.313 4.25 5.982 3.01 11.712 6.72 16.702 11.71L995.03936 677.376c24.96 24.992 24.96 65.505 0 90.497L885.65936 877.248C873.14936 889.76 856.79936 896 840.37936 896c-16.38 0-32.73-6.24-45.25-18.752L264.47836 346.629C258.62336 340.739 254.27136 333.989 251.13336 326.819zM152.67136 26.02c-5.952-2.88-10.207-4.13-12.897-4.58 0.45 2.66 1.665 6.95 4.577 12.87l112.127 231.579c2.305-3.46 4.96-6.75 8-9.82l109.375-109.38c3.265-3.3 6.817-6.05 10.56-8.48L152.67136 26.02zM817.75936 854.625C823.80936 860.673 831.83936 864 840.37936 864c8.58 0 16.61-3.327 22.66-9.375L972.37936 745.28c12.48-12.48 12.48-32.8 0.03-45.28L869.08936 596.673l-154.66 154.655L817.75936 854.625zM287.10336 323.999l404.706 404.706 154.65-154.657L441.75836 169.379c-6.047-6.05-14.08-9.38-22.655-9.38-8.577 0-16.61 3.33-22.657 9.38l-109.342 109.37C274.65336 291.229 274.65336 311.519 287.10336 323.999z"  horiz-adv-x="1024" />

    
    <glyph glyph-name="dianpu" unicode="&#58925;" d="M962.8 232.8c-14.8 0-18-12-18-26.4l0-265.2c0-14.8-20.4-28.8-35.2-28.8L114-87.6c-14.8 0-34 14.4-34 28.8l-1.2 265.2c0 14.8-3.2 26.4-18 26.4-14.8 0-18-12-18-26.4l0-265.2c0-44 27.2-64.8 70.8-64.8l795.6 0c44 0 70.8 20.8 70.8 64.8l0 265.2C980.8 220.8 977.6 232.8 962.8 232.8zM1023.6 620.4c-0.4 10.8-3.2 21.6-8 32.4l0 0.4c0 0-113.2 214.8-114.4 216.4-11.6 22.4-18 22.4-72 22.4L194.4 892c-44.4 0-46.4 0-62.8-27.6L10.4 656.8l0-0.4 0-0.4C4 644.4 0.8 632.4 0 620c0-0.4 0-0.8 0-1.2l0-185.2C0 345.6 50 292 134 292c50.4 0 97.6 26 126 70 28.4-44 75.6-70 126-70 50.4 0 97.6 26 126 70 28.4-44 75.6-70 126-70 50.4 0 97.6 26 126 70 28.4-44 75.6-70 126-70 84 0 134 53.2 134 141.6L1024 619.2C1024 619.6 1024 620 1023.6 620.4zM160.8 835.6c8.4 13.6 18 19.2 33.6 19.2l634.8 0c16 0 29.2-1.6 39.6-19.2 19.2-32 67.2-122.4 76-137.2L78.8 698.4C87.6 713.2 141.6 804 160.8 835.6zM989.6 433.6 989.6 433.6 989.6 433.6c0-57.6-44.8-104.4-99.6-104.4-54.8 0-99.6 34.8-99.6 92L790.4 448c0 15.2-12 27.6-26.4 27.6-14.8 0-26.4-12.4-26.4-27.6l0-26.4c0-57.6-44.8-92-99.6-92-54.8 0-99.6 34.8-99.6 92L538.4 448c0 15.2-12 27.6-26.4 27.6-14.8 0-26.4-12.4-26.4-27.6l0-26.4c0-57.6-44.8-92-99.6-92-54.8 0-99.6 34.8-99.6 92L286.4 448c0 15.2-12 27.6-26.4 27.6-14.8 0-26.4-12.4-26.4-27.6l0-26.4c0-57.6-44.8-92-99.6-92-54.8 0-99.6 46.8-99.6 104.4L34.4 618.8c0.4 13.6 11.6 42.8 24.8 42.8l904.8 0c13.6 0 24.4-29.2 24.8-42.8L988.8 433.6z"  horiz-adv-x="1024" />

    
    <glyph glyph-name="zuixin" unicode="&#59156;" d="M332.581166 110.418065l0 10.264784C332.275197 117.270123 332.275197 113.831814 332.581166 110.418065M645.373125 294.293909 377.267924 629.443062l0-0.010233-44.686758 0 0-402.156266 44.686758 0L377.267924 562.417529l268.105201-335.140966 44.682665 0L690.05579 629.432829l-44.682665 0L645.373125 294.293909zM868.795661 830.517613 153.846412 830.517613c-49.355081 0-89.369424-40.015366-89.369424-89.369424l0-625.579825c0-49.354058 40.015366-89.370447 89.369424-89.370447l244.233514 0 72.492034-72.40403c22.36231-22.334681 58.612932-22.334681 80.97115 0l72.492034 72.40403 244.759493 0c49.355081 0 89.364307 40.015366 89.364307 89.370447L958.158944 741.14819C958.165084 790.502247 918.150742 830.517613 868.795661 830.517613M913.478326 115.568365c0-24.677029-20.005636-44.686758-44.682665-44.686758L690.05579 70.881606l-21.278629 0-50.551326 0-76.736709-76.645634c-16.770965-16.751522-43.958164-16.751522-60.72913 0l-76.736709 76.645634-50.677193 0-20.763906 0L153.846412 70.881606c-24.683169 0-44.686758 20.009729-44.686758 44.686758L109.159654 741.14819c0 24.677029 20.00359 44.681642 44.686758 44.681642l714.949248 0c24.677029 0 44.682665-20.004613 44.682665-44.681642L913.478326 115.568365z"  horiz-adv-x="1024" />

    
    <glyph glyph-name="chenggong" unicode="&#58990;" d="M512.0025 896C228.26625 896 0 667.73375 0 383.99749999999995c0-283.73 228.26625-511.99625 512.0025-511.99625 283.73 0 511.99625 228.26625 511.99625 511.99625C1023.99875 667.73375 795.7325 896 512.0025 896L512.0025 896zM832.0025 512.00125l-339.205-339.2c-23.46625-23.46625-66.1325-23.46625-89.59875 0L192.0025 383.99749999999995c0 0-32.0025 32.0025 0 64.005 31.99625 31.99625 63.99875 0 63.99875 0L447.9975 256l320 320c0 0 32.0025 32.0025 64.005 0C863.99875 543.9975 832.0025 512.00125 832.0025 512.00125L832.0025 512.00125zM832.0025 512.00125"  horiz-adv-x="1024" />

    
    <glyph glyph-name="filter" unicode="&#58973;" d="M914.223804 617.845932l-2.573615 27.963888L505.304508 645.809821 109.144816 645.809821l-2.733251-27.963888c-0.76441-6.085602-5.454222-69.054749 69.911256-144.371108 60.739363-60.695361 185.80887-197.132776 213.698057-227.545436l17.920138-288.679795 13.242606-5.194302c1.701758-0.595564 36.501332-14.919804 84.120886-14.919804 45.677319 0 87.496773 14.792914 89.201601 15.382339l17.075911 5.665023 18.557658 289.606911c27.887141 30.40652 153.275919 168.718633 214.015282 229.40683C919.52146 552.520111 914.991284 611.759307 914.223804 617.845932zM810.745035 513.720434c-68.984141-68.954465-219.847104-240.562914-221.358527-242.234997l-6.201236-6.086625-18.854417-273.477558c-13.434987-3.530406-35.701107-7.921413-59.026348-7.921413l0 0.00307c-24.291243 0-40.439014 5.300726-53.947679 8.821923l-15.033391 274.337135-5.552459 7.852852c-1.509377 1.672082-152.055115 169.750125-221.038232 238.703567-33.148981 33.107025-46.927799 62.070684-52.642964 84.431971l348.214726 0 358.344434 0C857.92559 575.791118 843.826478 546.766061 810.745035 513.720434zM159.318542 693.458027l701.084473 0c26.2652 0 48.196699 20.701484 48.196699 46.963615L908.599713 785.914766c0 26.2652-21.931498 47.585785-48.196699 47.585785l-67.904553 0c-20.24202-13.103436-9.795087-26.594705 3.433192-35.983539l50.78771 0c12.169157 0 22.034852-9.871835 22.034852-22.053272l0-24.940019c0-12.178367-9.865695-22.050202-22.034852-22.050202L174.580131 728.473519c-12.169157 0-22.034852 9.871835-22.034852 22.050202l0 24.940019c0 12.181437 9.865695 22.053272 22.034852 22.053272l519.821129 0c20.914332 10.843976 14.202467 26.832112 7.728008 35.983539L159.318542 833.500551c-26.26213 0-47.588855-21.320585-47.588855-47.585785l0-45.493124C111.729687 714.159512 133.056412 693.458027 159.318542 693.458027z"  horiz-adv-x="1024" />

    
    <glyph glyph-name="xihuan" unicode="&#58921;" d="M732.512 796.992c-64.224 0-125.952-23.904-173.952-67.296-18.24-16.512-33.792-35.232-46.56-55.872-12.768 20.64-28.416 39.456-46.56 55.872-47.904 43.392-109.728 67.296-173.952 67.296C148.352 796.992 32 680.544 32 537.504c0-96.576 30.048-172.8 100.416-254.88C234.752 163.20000000000005 493.568-18.912000000000035 504.512-26.591999999999985c2.208-1.536 4.896-2.4 7.488-2.4 2.592 0 5.184 0.768 7.488 2.4 10.944 7.68 269.856 189.888 372.192 309.216 70.368 82.08 100.416 158.304 100.416 254.88C992 680.544 875.648 796.992 732.512 796.992L732.512 796.992z"  horiz-adv-x="1025" />

    
    <glyph glyph-name="caidan" unicode="&#58940;" d="M991.217363 803.691641 27.939329 803.691641c-15.97381 0-28.89919-12.925381-28.89919-28.898167l0-19.265786c0-15.954367 12.925381-28.898167 28.89919-28.898167l963.278033 0c15.971763 0 28.897144 12.9438 28.897144 28.898167l0 19.265786C1020.114506 790.76626 1007.189126 803.691641 991.217363 803.691641zM991.217363 33.067372 27.939329 33.067372c-15.97381 0-28.89919-12.923334-28.89919-28.897144l0-19.266809c0-15.95232 12.925381-28.897144 28.89919-28.897144l963.278033 0c15.971763 0 28.897144 12.944823 28.897144 28.897144l0 19.266809C1020.114506 20.145062 1007.189126 33.067372 991.217363 33.067372zM991.217363 418.380018 27.939329 418.380018c-15.97381 0-28.89919-12.925381-28.89919-28.898167l0-19.266809c0-15.953344 12.925381-28.897144 28.89919-28.897144l963.278033 0c15.971763 0 28.897144 12.9438 28.897144 28.897144l0 19.266809C1020.114506 405.454638 1007.189126 418.380018 991.217363 418.380018z"  horiz-adv-x="1036" />

    
    <glyph glyph-name="gouwuchehx" unicode="&#58988;" d="M280.376757 62.00444100000004c-52.370147 0-94.778234-42.536079-94.778234-95.034219 0-52.434144 42.408087-94.970223 94.778234-94.970223s94.756902 42.536079 94.756902 94.970223C375.133659 19.468361999999956 332.725573 62.00444100000004 280.376757 62.00444100000004zM280.376757-85.10127599999998c-28.670256 0-51.986171 23.358579-51.986171 52.071499 0 28.755584 23.315915 52.135495 51.986171 52.135495s51.986171-23.401243 51.986171-52.135495C332.341596-61.76402900000005 309.025681-85.10127599999998 280.376757-85.10127599999998zM574.310876 62.00444100000004c-52.370147 0-94.778234-42.536079-94.778234-95.034219 0-52.434144 42.429419-94.970223 94.778234-94.970223 52.348815 0 94.756902 42.536079 94.756902 94.970223C669.067778 19.468361999999956 626.659692 62.00444100000004 574.310876 62.00444100000004zM574.310876-85.10127599999998c-28.670256 0-51.986171 23.358579-51.986171 52.071499 0 28.755584 23.315915 52.135495 51.986171 52.135495s51.986171-23.401243 51.986171-52.135495C626.275715-61.76402900000005 602.981132-85.10127599999998 574.310876-85.10127599999998zM1002.572823 822.640836l-43.794669 0c-51.687522 0-86.970709-4.60772-106.169541-67.857205l-30.952784-142.476666c-6.591599 1.215926-13.780495 2.026543-22.313309 2.026543l-15.50839 0-51.410206 192.372297c-5.013028 18.729527-17.001632 34.408573-33.768612 44.11465-16.724316 9.727408-36.285793 12.26592-55.313968 7.167564l-138.786224-39.549594L490.241324 851.929721c-7.636869 17.854914-21.780008 31.635409-39.762914 38.845637-17.961574 7.167564-37.651043 6.890248-55.889933-0.93861L117.442669 762.783144c-36.712433-15.764374-53.778062-58.57777-37.949691-95.56752L102.57424 614.35484l-46.077197 0c-48.573045 0-65.617342-18.729527-51.879511-68.027862l66.214639-396.647871c9.386096-31.059444 26.750373-50.002292 77.029981-50.002292l293.699467 0 245.041093 0c50.258276 0 67.643885 18.942848 77.029981 50.002292l78.992528 357.524917c0 0.021332 0.021332 0.021332 0.021332 0.042664l0.554633 2.602508 8.063509 36.477781c1.791891 6.506271 3.007817 12.415245 3.733106 17.854914l38.994961 179.786396c9.258103 30.398151 14.889761 35.795156 64.785392 35.795156l43.794669 0C1014.412103 779.763444 1023.968855 789.36286 1023.968855 801.223472 1023.968855 813.04142 1014.412103 822.640836 1002.572823 822.640836zM654.753982 816.689198c7.700865 2.090539 15.657714 1.002606 22.505298-2.965153 6.868915-3.967759 11.796616-10.410033 13.844491-18.089566l48.445053-181.258307-147.596355 0L521.599416 778.718175 654.753982 816.689198zM118.765255 684.238589C112.32298 699.363002 119.277224 716.897935 134.785614 723.574863L411.952753 850.628467c7.274224 3.135809 15.316402 3.263801 22.675954 0.298648 7.359552-2.943821 13.161866-8.59681 16.297675-15.913699l94.500918-220.658577-103.865682 0L149.291398 614.35484 118.765255 684.238589zM722.205879 160.558446c-3.88243-12.713893-6.591599-18.004238-35.6245-18.004238L441.561618 142.55420800000002 147.862152 142.55420800000002c-28.243615 0-31.571413 4.991696-35.283187 17.001632L46.812299 553.387882l-0.383977 2.239864-0.618629 2.1972c-1.578571 5.695654-2.346524 9.876732-2.709169 12.799221 2.965153 0.447973 7.274224 0.831949 13.375186 0.831949l385.064575 0 309.485173 0 0.085328-0.319981 1.215926 0.319981 47.015807 0c6.036966 0 10.282041-0.383977 13.247194-0.831949l-11.796616-54.268699 0 0L722.205879 160.558446z"  horiz-adv-x="1024" />

    
    <glyph glyph-name="yaoqingma" unicode="&#58923;" d="M953.323 569.196l-407.985 295.745c-27.958 20.291-68.425 19.858-95.979-1.025l-389.008-294.98c-20.16-15.279-32.19-39.511-32.19-64.813v-532.558c0-44.839 36.493-81.335 81.335-81.335h796.084c44.839 0 81.335 36.493 81.335 81.335v531.763c0 25.98-12.563 50.603-33.59 65.867zM942.551-28.434c0-20.391-16.579-36.97-36.97-36.97h-796.084c-20.391 0-36.97 16.579-36.97 36.97v532.558c0 11.51 5.474 22.514 14.628 29.459l389.008 294.981c6.354 4.81 13.922 7.366 21.879 7.366 7.683 0 15.035-2.384 21.244-6.901l407.985-295.746c9.574-6.947 15.279-18.138 15.279-29.951v-531.763zM680.572 254.944c1.036 1.491 2.086 2.971 2.987 4.57l93.711 166.583c10.065 17.907 9.892 39.18-0.477 56.913-10.383 17.733-28.838 28.319-49.376 28.319h-447.149c-20.955 0-39.598-10.905-49.851-29.17-10.269-18.267-9.892-39.871 1.011-57.781l101.509-166.583c0.614-1.005 1.347-1.91 2.015-2.866l-133.852-156.161c-7.972-9.301-6.901-23.308 2.397-31.28 4.188-3.597 9.316-5.344 14.428-5.344 6.252 0 12.463 2.627 16.854 7.741l138.209 161.243c2.898-0.459 5.831-0.77 8.805-0.77h251.916c3.084 0 6.109 0.325 9.099 0.809l127.071-160.604c4.389-5.531 10.874-8.42 17.415-8.42 4.823 0 9.675 1.558 13.748 4.78 9.605 7.611 11.235 21.559 3.638 31.165l-124.103 156.858zM269.317 447.455c-3.537 5.791-1.344 11.006-0.231 12.969 1.098 1.965 4.404 6.541 11.179 6.541h447.151c6.643 0 9.95-4.448 11.076-6.354 1.111-1.907 3.364-6.975 0.101-12.766l-93.711-166.595c-2.269-4.030-6.541-6.529-11.179-6.529h-251.917c-4.448 0-8.65 2.353-10.96 6.151l-101.51 166.585z"  horiz-adv-x="1024" />

    
    <glyph glyph-name="mendianhuodonghx" unicode="&#58902;" d="M980.421777 699.4759799999999L610.01843 699.4759799999999 766.428384 852.574287C775.666136 861.57238 775.86222 876.431217 766.885914 885.777905 757.996757 895.059231 743.312217 895.407825 733.965529 886.257222L543.131877 699.4759799999999 540.735291 699.4759799999999 358.572925 888.828106C349.66198 898.131219 334.912079 898.479813 325.630753 889.32921 316.393001 880.331117 316.240491 865.47228 325.173223 856.14738L475.896731 699.4759799999999 108.935753 699.4759799999999C49.783639 699.4759799999999 0 650.302381 0 590.583801L0 438.160896C0 389.161594 42.746389 364.324242 87.148602 351.05586700000003L87.148602-19.129607999999962C87.148602-77.30130099999997 116.583043-128 174.297205-128L915.060325-128C972.7527-128 1002.208928-77.344875 1002.208928-19.129607999999962L1002.208928 351.05586700000003C1046.611141 364.324242 1089.35753 389.161594 1089.35753 438.160896L1089.35753 590.583801C1089.35753 650.302381 1039.573891 699.4759799999999 980.421777 699.4759799999999ZM522.891614-84.44748600000003L174.297205-84.44748600000003C150.919592-84.44748600000003 130.722904-64.46866899999998 130.722904-40.89497200000005L130.722904 351.05586700000003 522.891614 351.05586700000003 522.891614-84.44748600000003ZM958.634627-40.89497200000005C958.634627-64.46866899999998 938.416151-84.44748600000003 915.060325-84.44748600000003L566.465916-84.44748600000003 566.465916 351.05586700000003 958.634627 351.05586700000003 958.634627-40.89497200000005ZM1045.783229 438.160896C1045.783229 410.861596 1025.89156 395.087699 1001.054209 395.087699L566.465916 394.608381 566.465916 394.69553 522.891614 394.69553 522.891614 394.608381 87.279325 395.087699C62.463761 395.087699 43.574301 410.861596 43.574301 438.160896L43.574301 590.583801C43.574301 617.883101 62.311251 655.923466 87.148602 655.923466L495.657676 655.923466 517.815208 655.923466 566.465916 655.923466 641.261204 655.923466 1002.208928 655.923466C1027.068067 655.923466 1045.783229 617.883101 1045.783229 590.583801L1045.783229 438.160896Z"  horiz-adv-x="1090" />

    
    <glyph glyph-name="duoyun" unicode="&#58894;" d="M977.718 544.0360000000001c-32.026 33.143-76.713 52.135-122.704 52.135-7.541 0-15.082-0.559-22.53-1.49-39.008 48.411-97.66 76.806-160.781 76.806-56.325 0-108.553-24.019-145.885-60.886 0 0-0.093 0.279 0 0-32.864 14.151-68.8 21.785-105.946 21.785-127.079 0-234.608-87.885-261.42-209.192C69.916 416.678 0 346.48199999999997 0 260.73800000000006c0-90.957 77.085-164.225 171.953-164.225l0 0 495.376 0c2.234 0 54.463-0.466 106.877 25.881 40.684 20.389 87.606 59.397 104.177 132.758 60.514 8.286 141.603 50.459 145.513 170.463C1025.478 469.651 1009 511.731 977.718 544.0360000000001zM746.276 182.81500000000005c-38.45-19.923-78.575-20.389-78.854-20.482l-495.469-0.745c-58.093 0-105.294 44.129-105.294 98.405 0 53.345 47.294 96.729 105.48 96.729 3.817 0 7.634-0.186 11.358-0.559 0 0 19.178-1.21 28.209 7.169 6.982 6.517 8.193 22.53 8.193 22.53 10.799 102.501 96.822 179.773 199.975 179.773 64.331 0 123.262-28.581 161.153-79.599 0.838-1.117 1.583-2.327 2.421-3.445 1.676-2.421 3.445-4.841 5.027-7.355 0.931-1.396 1.862-2.886 2.886-4.283 8.193-12.848 24.206-18.527 38.636-13.592 13.313 4.469 26.347 6.144 38.17 6.517 82.578-0.279 149.702-67.589 149.702-150.261C817.962 250.59000000000003 794.501 207.765 746.276 182.81500000000005zM957.609 427.756c-2.421-71.872-43.291-95.891-73.268-103.898-5.4 114.79-100.453 206.678-216.547 206.678-11.917 0-23.74-0.931-35.377-2.793-13.779 17.968-29.605 33.888-46.922 47.573 0.093 0 0.186 0.093 0.279 0.186-0.093 0-0.093 0.093-0.093 0.093 23.833 18.62 53.811 29.605 86.209 29.605 48.225 0 92.447-24.299 118.328-64.983 7.913-12.382 22.902-18.154 37.053-14.151 9.031 2.607 18.433 3.817 27.93 3.817 28.023 0 55.393-11.637 74.944-31.84C948.672 478.588 958.54 453.731 957.609 427.756z"  horiz-adv-x="1025" />

    
    <glyph glyph-name="shitaoxin" unicode="&#58942;" d="M749.548254 264.380622L749.575884 264.54639799999995 749.820454 264.969023 749.923808 264.65384500000005ZM724.868155 276.808676L724.892715 276.95705499999997 725.111702 277.33567800000003 725.2038 277.05324599999994ZM512.00307 25.346527000000037L212.859969 323.62595799999997c-3.678786 3.094478-101.157911 95.821369-101.157911 205.26192 0 133.720537 79.253018 213.765595 211.819267 213.765595 79.396281 0 154.186661-66.642816 188.481745-102.162798 34.294061 35.519981 108.86443 102.162798 188.402951 102.162798 132.710534 0 211.892945-79.973426 211.892945-213.765595 0-109.441575-97.552803-202.167442-101.729939-205.768457L512.00307 25.346527000000037 512.00307 25.346527000000037z"  horiz-adv-x="1024" />

    
    <glyph glyph-name="shangpin-copy" unicode="&#58885;" d="M882.832-3.959l-51.105 565.332c-2.84 31.265-30.676 56.695-62.072 56.695h-82.328v38.421c0 96.677-78.661 175.329-175.319 175.329-96.675 0-175.336-78.652-175.336-175.329v-144.97c-17.134-6.937-29.228-23.703-29.228-43.323 0-25.826 20.924-46.752 46.751-46.752s46.753 20.926 46.753 46.752c0 19.621-12.092 36.386-29.21 43.323v71.485h280.528v-71.556c-17.033-6.981-29.034-23.711-29.034-43.252 0-25.826 20.944-46.752 46.768-46.752 25.828 0 46.753 20.926 46.753 46.752 0 19.7-12.181 36.5-29.422 43.403v71.406h82.326c13.507 0 25.933-11.354 27.134-24.796l51.121-565.333c0.532-5.87-1.199-11.324-4.901-15.364-3.684-4.037-8.972-6.266-14.859-6.266l-632.299-0c-5.888 0-11.179 2.229-14.86 6.266-3.685 4.037-5.431 9.491-4.902 15.364l51.122 565.333c1.165 13.028 12.87 24.081 25.862 24.761 0.423 0.026 100.149 0.035 100.572 0.035 9.697 0 17.542 7.845 17.542 17.532 0 9.687-7.845 17.531-17.542 17.531-0.335 0-99.973 0-100.292-0.009-30.991-0.521-58.28-25.747-61.082-56.686l-51.106-565.333c-1.426-15.803 3.526-30.779 13.926-42.188 10.419-11.388 24.893-17.672 40.759-17.672h632.296c15.867 0 30.339 6.284 40.758 17.672 10.419 11.409 15.356 26.385 13.926 42.188v0zM652.263 618.068h-280.527v38.421c0 77.338 62.917 140.265 140.273 140.265 77.337 0 140.256-62.926 140.256-140.265v-38.421h-0.002z"  horiz-adv-x="1024" />

    
    <glyph glyph-name="zuji" unicode="&#59073;" d="M484.032 664.192c-15.424 0-28.032-12.544-28.032-28.032l0-280.192c0-15.488 12.608-28.032 28.032-28.032l224.064 0c15.616 0 28.032 12.416 28.032 28.032C736.192 371.52 723.776 384 708.096 384L512 384 512 636.16C512 651.648 499.52 664.192 484.032 664.192L484.032 664.192zM925.056 558.528c-22.592 53.376-54.784 101.312-96 142.464S739.904 774.4 686.656 797.056C631.36 820.288 572.608 832.128 512.064 832.128c-92.16 0-180.8-27.712-256.064-80.384C219.52 726.592 187.2 696.128 159.872 661.312c-15.04-18.944-28.48-39.104-40.064-60.16L119.808 692.352c0 15.36-12.544 27.968-28.032 27.968-15.424 0-28.032-12.544-28.032-27.968l0-168.128c0-15.616 12.544-28.032 28.032-28.032l140.096 0c15.36 0 28.032 12.416 28.032 28.032 0 15.36-12.608 28.032-28.032 28.032L157.568 552.256C221.888 687.36 360.896 776.256 512 776.256c216.256 0 392.192-175.872 392.192-392.256 0-216.192-175.936-392.128-392.192-392.128-196.736 0-364.032 147.072-388.992 341.76-1.856 15.36-16 26.24-31.36 24.256-15.232-1.856-26.048-16-24.192-31.232 13.824-107.264 66.048-206.08 147.392-278.144 81.92-72.704 187.52-112.64 297.216-112.64 60.416 0 119.232 11.904 174.592 35.2 53.376 22.592 101.248 54.784 142.464 96 41.344 41.216 73.408 89.088 96.128 142.592 23.168 55.104 35.2 113.856 35.2 174.464C960.256 444.48 948.352 503.296 925.056 558.528L925.056 558.528zM512 384"  horiz-adv-x="1024" />

    
    <glyph glyph-name="xianshiqianggou-f" unicode="&#58932;" d="M515.0208 522.40384l-16.19456 0 0-204.68736 8.09472 0 262.60992 0 0 16.18944L515.0208 333.90592000000004 515.0208 522.40384 515.0208 522.40384zM515.0208 767.36l0 46.85824 37.85216 0 0 16.18944L460.97408 830.40768l0-16.18944 37.85728 0 0-46.85824c-233.8048-4.31616-422.00576-195.18464-422.00576-430.01856 0-237.53728 192.55808-430.10048 430.09536-430.10048 237.53728 0 430.10048 192.5632 430.10048 430.10048C937.02144 572.17536 748.81536 763.04384 515.0208 767.36L515.0208 767.36zM883.06688 337.34144000000003c0-50.80064-9.93792-100.06016-29.5424-146.39616-18.944-44.78464-46.06976-85.01248-80.63488-119.5776-34.56-34.56-74.78784-61.68576-119.57248-80.62464-46.336-19.59936-95.59552-29.54752-146.39616-29.54752s-100.05504 9.94304-146.39104 29.54752c-44.78464 18.93888-85.01248 46.06464-119.5776 80.62464-34.56 34.56512-61.69088 74.79296-80.63488 119.5776-19.59936 46.34624-29.53728 95.59552-29.53728 146.39616s9.93792 100.05504 29.53728 146.39616c18.944 44.78464 46.06976 85.01248 80.63488 119.5776s74.79296 61.69088 119.5776 80.63488c46.336 19.59936 95.5904 29.53728 146.39104 29.53728s100.06016-9.93792 146.39616-29.53728c44.78464-18.944 85.01248-46.06976 119.57248-80.63488 34.56512-34.56 61.69088-74.79296 80.63488-119.5776C873.12384 437.39648 883.06688 388.14208 883.06688 337.34144000000003L883.06688 337.34144000000003zM894.91456 608.23552l44.21632 30.92992c-36.56192 52.25984-82.33472 97.5616-134.99904 133.57568-52.6592 36.0192-112.22528 62.7456-176.29184 77.78304l-12.32896-52.5312c57.45664-13.4912 110.8736-37.4528 158.16192-69.7856C820.95616 695.8694399999999 862.09536 655.1552 894.91456 608.23552L894.91456 608.23552zM237.05088 726.05184c45.97248 31.98464 97.86368 56.00768 153.69728 70.10304L377.54368 848.47104c-62.2592-15.71328-120.10496-42.50112-171.31008-78.12096-51.2-35.61984-95.7696-80.0768-131.52256-131.18464l44.21632-30.92992C151.02464 654.12096 191.07328 694.07232 237.05088 726.05184L237.05088 726.05184z"  horiz-adv-x="1024" />

    
    <glyph glyph-name="wode" unicode="&#58917;" d="M1011.090286-128 973.531429-128c0 119.04-52.571429 244.150857-144.219429 323.675429-11.446857 9.965714-46.025143 30.610286-58.441143 39.277714-27.245714 18.998857-67.218286 15.634286-120.996571-9.709714C608.804571 205.860571 562.249143 178.285714 512 178.285714c-50.285714 0-96.932571 21.814857-138.075429 41.033143-54.125714 25.325714-94.317714 39.862857-121.764571 20.571429-11.428571-8.027429-45.037714-33.536-55.606857-42.605714C103.734857 117.650286 50.505143-8.027429 50.505143-128L12.928-128c0 70.893714 15.378286 139.209143 45.696 203.099429 29.257143 61.604571 70.710857 115.712 123.245714 160.786286 12.178286 10.459429 25.014857 20.425143 38.180571 29.677714 27.812571 19.492571 59.282286 25.252571 96.292571 17.609143 28.672-5.888 57.526857-19.401143 85.430857-32.457143 36.644571-17.115429 74.550857-34.816 110.244571-34.816 35.529143 0 73.307429 17.828571 109.842286 35.035429 27.739429 13.110857 56.411429 26.642286 84.973714 32.676571 36.827429 7.753143 68.242286 2.102857 96-17.243429 14.281143-10.002286 28.269714-20.864 41.453714-32.329143 51.931429-45.037714 92.891429-98.925714 121.746286-160.219429C995.913143 10.313143 1011.090286-57.6 1011.090286-128L1011.090286-128zM512.036571 299.501714c-82.779429 0-160.676571 30.884571-219.337143 86.893714C233.654857 442.788571 201.142857 517.833143 201.142857 597.741714c0 79.926857 32.493714 155.008 91.556571 211.401143C351.36 865.133714 429.257143 896 512.036571 896s160.676571-30.866286 219.318857-86.857143c59.062857-56.393143 91.556571-131.456 91.556571-211.401143 0-79.908571-32.475429-154.971429-91.556571-211.364571C672.731429 330.386286 594.834286 299.501714 512.036571 299.501714L512.036571 299.501714zM512.036571 856.246857c-150.089143 0-272.201143-115.968-272.201143-258.505143 0-142.500571 122.112-258.468571 272.201143-258.468571 150.070857 0 272.182857 115.968 272.182857 258.468571C784.219429 740.278857 662.107429 856.246857 512.036571 856.246857L512.036571 856.246857z"  horiz-adv-x="1024" />

    
    <glyph glyph-name="right" unicode="&#58897;" d="M615.936 381.44l-354.816 351.744 71.168 70.144 425.472-421.888-425.472-421.888-71.168 70.656 354.816 351.232z"  horiz-adv-x="1024" />

    
    <glyph glyph-name="xiaofeigouwuhx" unicode="&#58900;" d="M890.01984 538.39872c0 61.62432-50.13504 111.7696-111.7696 111.7696h-68.25984v23.06048c0 113.36704-92.23168 205.59872-205.59872 205.59872s-205.59872-92.23168-205.59872-205.59872v-23.06048h-68.23936c-61.62432 0-111.75936-50.13504-111.74912-110.9504l-21.7088-548.5056c0-61.62432 50.13504-111.75936 111.7696-111.75936H799.9488c61.62432 0 111.75936 50.13504 111.73888 112.56832l-21.66784 546.87744zM339.75296 673.21856c0 90.78784 73.85088 164.63872 164.63872 164.63872s164.63872-73.85088 164.63872-164.63872v-23.06048H339.75296v23.06048zM799.9488-80.09727999999996H208.86528c-39.03488 0-70.8096 31.76448-70.81984 69.9904l21.7088 548.5056c0 39.03488 31.76448 70.8096 70.79936 70.8096H778.24c39.03488 0 70.8096-31.76448 70.83008-71.61856l21.66784-546.88768a70.8608 70.8608 0 0 0-70.78912-70.79936zM504.39168 194.05823999999996c-96.36864 0-174.76608 78.39744-174.76608 174.76608h-40.96c0-118.94784 96.77824-215.72608 215.72608-215.72608 118.95808 0 215.72608 96.77824 215.72608 215.72608h-40.96c0-96.36864-78.39744-174.76608-174.76608-174.76608z"  horiz-adv-x="1024" />

    
    <glyph glyph-name="chahx" unicode="&#59260;" d="M1024 388.41c0 28.417-13.263 67.662-69.542 105.669C997.901 523.233 1024 558.698 1024 600.175c0 131.971-263.793 203.179-511.995 203.179C263.793 803.354 0 732.1469999999999 0 600.175c0-41.477 26.1-76.953 69.552-106.107C13.263 456.073 0 416.817 0 388.41c0-43.592 28.908-80.498 76.387-110.453C14.566 238.755 0 197.65099999999995 0 167.81399999999996c0-131.961 263.793-203.168 512.005-203.168 248.202 0 511.995 71.208 511.995 203.168 0 29.848-14.577 70.962-76.387 110.133C995.103 307.91200000000003 1024 344.81899999999996 1024 388.41zM511.995 749.948c270.264 0 458.6-78.939 458.6-149.784 0-70.834-188.346-149.762-458.6-149.762-270.264 0-458.61 78.929-458.61 149.763-0.001 70.855 188.345 149.783 458.61 149.783z m458.61-582.145c0-70.845-188.346-149.773-458.6-149.773-270.264 0-458.61 78.939-458.61 149.773 0 26.666 29.015 55.841 80.082 80.936 99.539-41.723 241.367-63.508 378.528-63.508s278.979 21.785 378.518 63.508c51.056-25.084 80.082-54.259 80.082-80.936z m-458.61 70.824c-270.264 0-458.61 78.939-458.61 149.773 0 24.807 25.63 52.188 70.738 76.12 99.87-44.35 246.365-67.534 387.872-67.534 141.518 0 288.024 23.184 387.883 67.545 45.097-23.942 70.716-51.323 70.716-76.131 0.011-70.834-188.335-149.773-458.599-149.773z"  horiz-adv-x="1024" />

    
    <glyph glyph-name="shangpinfenlei-f" unicode="&#58927;" d="M774.144-31.23199999999997h-63.488c-81.408 0-147.456 66.048-147.456 147.456v188.416c0 10.752 8.192 19.456 17.92 20.48 3.072 1.536 6.144 2.56 9.728 2.56h183.296c81.408 0 147.456-66.048 147.456-147.456v-63.488c0-81.92-66.048-147.968-147.456-147.968z m-170.496 317.44v-169.984c0-58.88 47.616-106.496 106.496-106.496h63.488c58.88 0 106.496 47.616 106.496 106.496v63.488c0 58.88-47.616 106.496-106.496 106.496h-169.984zM313.344-31.23199999999997H249.856c-81.408 0-147.456 66.048-147.456 147.456v63.488c0 81.408 66.048 147.456 147.456 147.456h183.296c3.584 0 6.656-1.024 9.728-2.56 10.24-1.024 18.432-9.728 18.432-20.48v-188.416c0-80.896-66.56-146.944-147.968-146.944z m-63.488 317.44c-58.88 0-106.496-47.616-106.496-106.496v-63.488c0-58.88 47.616-106.496 106.496-106.496h63.488c58.88 0 106.496 47.616 106.496 106.496v169.984H249.856zM433.152 430.592H249.856C168.448 430.592 102.4 496.64 102.4 578.048V641.5360000000001c0 81.408 66.048 147.456 147.456 147.456h63.488C394.752 788.992 460.8 722.944 460.8 641.5360000000001v-188.416c0-10.752-8.192-19.456-17.92-20.48-2.56-1.536-6.144-2.048-9.728-2.048z m-183.296 317.44C190.976 748.032 143.36 700.4159999999999 143.36 641.5360000000001v-63.488c0-58.88 47.616-106.496 106.496-106.496H419.84V641.5360000000001c0 58.88-47.616 106.496-106.496 106.496H249.856zM774.144 430.592h-183.296c-3.584 0-6.656 1.024-9.728 2.56-10.24 1.024-18.432 9.728-18.432 20.48V641.5360000000001c0 81.408 66.048 147.456 147.456 147.456h63.488c81.408 0 147.456-66.048 147.456-147.456v-63.488c0.512-81.408-65.536-147.456-146.944-147.456z m-170.496 40.96h169.984c58.88 0 106.496 47.616 106.496 106.496V641.5360000000001c0 58.88-47.616 106.496-106.496 106.496h-63.488c-58.88 0-106.496-47.616-106.496-106.496v-169.984z"  horiz-adv-x="1024" />

    
    <glyph glyph-name="qianshou" unicode="&#59118;" d="M504.649-9.485h-271.995c-49.116 0-87.743 38.588-87.743 87.743v640.524c0 49.116 38.588 87.743 87.743 87.743h540.496c49.116 0 87.743-38.588 87.743-87.743v-382.563h-35.101v382.563c0 29.808-22.822 52.628-52.628 52.628h-540.496c-29.808 0-52.628-22.822-52.628-52.628v-642.255c0-29.808 22.822-52.628 52.628-52.628h271.995v-33.347zM725.734 569.626h-436.945v35.101h436.945v-35.101zM725.734 402.91h-436.945v35.101h436.945v-35.101zM502.881 234.471h-214.106v35.101h212.311l1.743-35.101zM704.683-32.304c-100.037 0-178.982 80.71-178.982 178.982 0 100.037 80.71 178.982 178.982 178.982 100.037 0 178.982-80.71 178.982-178.982-1.743-98.293-82.481-178.982-178.982-178.982zM704.683 290.594c-80.71 0-143.921-64.912-143.921-143.921 0-80.71 64.912-143.921 143.921-143.921 80.71 0 143.921 64.912 143.921 143.921-1.743 78.94-64.912 143.921-143.921 143.921zM613.451 122.13l24.561 24.561 70.189-70.189-24.561-24.561-70.189 70.189zM688.906 48.442l-26.33 24.561 126.342 126.342 24.561-24.561-124.577-126.342z"  horiz-adv-x="1024" />

    
    <glyph glyph-name="pingfenxin" unicode="&#59198;" d="M261.23264 384.36864a140.4928 140.4928 0 0 0-31.80032 6.46144 146.01728 146.01728 0 0 0-29.24544 13.32736c-46.76608 27.71456-78.6176 81.34144-78.6176 142.44352V689.9456l0.11264 1.92512v1.41824l0.05632 0.7936 0.05632 2.09408a17.09568 17.09568 0 0 0 17.17248 16.6656v0.11776h111.26784v50.22208c0 0.73728 0.05632 1.47456 0.11264 2.21184l0.05632 3.79904v0.33792l0.05632 0.84992 0.11264 4.87424c0.28672 11.16672 9.5232 20.06528 20.68992 20.06528H752.78848a20.68992 20.68992 0 0 0 20.6336-20.17792l0.16896-5.72416v-0.22528l0.05632-5.78048v-0.22528h0.11264v-50.22208h111.26784v-0.11264a17.15712 17.15712 0 0 0 17.17248-16.60928l0.10752-2.8928h-0.05632l0.05632-0.33792v-1.69984l0.11264-1.36192v-143.34976c0-61.1072-31.85664-114.72896-78.6176-142.44352a143.1296 143.1296 0 0 0-29.25056-13.32736 140.57472 140.57472 0 0 0-31.85664-6.46144c-12.416-49.87904-34.91328-94.65856-64.55808-130.76992-42.91072-52.25984-100.95616-86.54848-165.40672-92.68224v-146.81088h113.59744a20.75136 20.75136 0 0 0 20.74624-20.74112 20.736 20.736 0 0 0-20.74624-20.68992H377.66144a20.736 20.736 0 0 0-20.74624 20.68992 20.75136 20.75136 0 0 0 20.74624 20.74112h113.59232V160.8704c-64.50688 6.1184-122.49088 40.46848-165.4016 92.72832-29.6448 36.11136-52.20352 80.89088-64.61952 130.76992z m471.03488 89.61536V754.05824H291.72736V473.7024h-0.11264c0.05632-75.61728 25.3952-144.26112 66.09408-193.86368 39.84896-48.4608 94.49472-78.6688 154.17856-78.6688v0.10752h0.2816v-0.10752c59.62752 0.06144 114.27328 30.15168 154.06592 78.6176 40.7552 49.64864 66.09408 118.35392 66.1504 194.08384h-0.11264v0.11264z m44.89728-52.31616c2.26304 0.5632 4.53632 1.24416 6.74304 1.98144 7.87968 2.54976 15.36 6.01088 22.33344 10.09152l0.05632 0.06144v0.05632c36.61312 21.7088 61.61408 64.16384 61.61408 112.74752v131.7888H777.1648v-256.72704z m-537.07264 1.98144c2.26816-0.73728 4.48-1.41312 6.74304-1.98144v256.7168H156.14464v-131.7888c0-48.57856 24.93952-91.0336 61.55776-112.74752v-0.05632l0.05632-0.06144a113.67936 113.67936 0 0 1 22.33344-10.08128z"  horiz-adv-x="1024" />

    
    <glyph glyph-name="zonghe" unicode="&#59458;" d="M477.866667 418.133333H129.706667C58.026667 418.133333 0 476.16 0 547.84V766.293333C0 837.973333 58.026667 896 129.706667 896h221.866666c68.266667 0 126.293333-58.026667 126.293334-129.706667V418.133333zM129.706667 848.213333c-44.373333 0-81.92-37.546667-81.92-81.92v-221.866666c0-44.373333 37.546667-81.92 81.92-81.92h303.786666V766.293333c0 44.373333-37.546667 81.92-81.92 81.92H129.706667zM894.293333 418.133333H542.72V766.293333c0 71.68 58.026667 129.706667 129.706667 129.706667h221.866666C965.973333 896 1024 837.973333 1024 766.293333v-221.866666c0-68.266667-58.026667-126.293333-129.706667-126.293334z m-303.786666 47.786667h303.786666c44.373333 0 81.92 37.546667 81.92 81.92V766.293333c0 44.373333-37.546667 81.92-81.92 81.92h-221.866666c-44.373333 0-81.92-37.546667-81.92-81.92v-300.373333zM348.16-128H129.706667C58.026667-128 0-69.973333 0 1.706667v221.866666c0 71.68 58.026667 129.706667 129.706667 129.706667H477.866667v-351.573333c0-71.68-58.026667-129.706667-129.706667-129.706667zM129.706667 305.493333c-44.373333 0-81.92-37.546667-81.92-81.92v-221.866666c0-44.373333 37.546667-81.92 81.92-81.92h221.866666c44.373333 0 81.92 37.546667 81.92 81.92v303.786666H129.706667zM894.293333-128h-221.866666c-71.68 0-129.706667 58.026667-129.706667 129.706667V353.28h351.573333c71.68 0 129.706667-58.026667 129.706667-129.706667v-221.866666c0-71.68-58.026667-129.706667-129.706667-129.706667z m-303.786666 433.493333v-303.786666c0-44.373333 37.546667-81.92 81.92-81.92h221.866666c44.373333 0 81.92 37.546667 81.92 81.92v221.866666c0 44.373333-37.546667 81.92-81.92 81.92h-303.786666z"  horiz-adv-x="1024" />

    
    <glyph glyph-name="xinkuanshangshi-f" unicode="&#59364;" d="M923.8755552 566.0444448000001c0 11.37777813-11.37777813 22.7555552-22.7555552 22.7555552h-136.53333333v9.10222187C762.31111147 732.16 653.0844448 839.11111147 521.10222187 839.11111147h-18.20444374C370.9155552 839.11111147 261.68888853 732.16 261.68888853 597.90222187v-9.10222187H125.1555552c-11.37777813 0-22.7555552-9.10222187-22.7555552-22.7555552l-20.48-552.96v-2.27555627c4.55111147-59.1644448 54.61333333-104.6755552 113.77777813-104.6755552H830.57777813c59.1644448 0 109.22666667 45.51111147 113.77777707 104.6755552v2.27555627L923.8755552 566.0444448000001zM830.57777813-48.355555200000026H195.69777813c-34.13333333 0-63.7155552 27.30666667-68.26666666 61.44L147.91111147 543.28888853h113.77777706v-136.53333333c0-13.65333333 9.10222187-22.7555552 22.75555627-22.7555552s22.7555552 9.10222187 22.7555552 22.7555552v191.14666667C307.2 707.12888853 395.94666667 793.6 502.89777813 793.6h18.20444374c106.95111147 0 195.69777813-88.74666667 195.69777813-195.69777813V406.7555552c0-13.65333333 9.10222187-22.7555552 22.7555552-22.7555552s22.7555552 9.10222187 22.75555627 22.7555552v136.53333333h116.05333333l20.48-530.20444373c-2.2755552-34.13333333-31.85777813-61.44-68.26666667-61.44zM377.74222187 543.28888853h273.06666666c13.65333333 0 22.7555552 9.10222187 22.75555627 22.75555627s-9.10222187 22.7555552-22.75555627 22.7555552h-273.06666666c-13.65333333 0-22.7555552-9.10222187-22.7555552-22.7555552s9.10222187-22.7555552 22.7555552-22.75555627zM705.42222187 311.18222187000003c-11.37777813 6.82666667-25.03111147 2.2755552-29.58222187-9.10222187l-88.74666667-170.66666667-129.70666666 175.21777814c-6.82666667 6.82666667-13.65333333 9.10222187-22.7555552 9.10222186-6.82666667 0-13.65333333-4.55111147-18.2044448-11.37777813l-106.95111147-204.8c-6.82666667-11.37777813-2.2755552-25.03111147 9.10222293-29.58222187 4.55111147-4.55111147 6.82666667-4.55111147 11.37777707-4.55111146 9.10222187 0 15.92888853 4.55111147 20.48 11.37777813l91.02222293 172.94222187 129.70666667-175.21777707c4.55111147-6.82666667 11.37777813-9.10222187 20.48-9.10222293 6.82666667 0 13.65333333 4.55111147 18.20444373 11.37777813l106.95111147 202.5244448c2.2755552 11.37777813-2.2755552 25.03111147-11.37777813 31.85777707z"  horiz-adv-x="1024" />

    
    <glyph glyph-name="gouwuche" unicode="&#58941;" d="M28.628526 801.554978h38.373982c7.427156-1.670036 34.081213-9.650801 35.273365-38.264489 0.044002-1.072425 0.163729-2.140757 0.357134-3.196809l101.232612-551.365566c0.23536-1.280156 0.579191-2.539846 1.0274-3.762697 0.759293-2.070148 7.893784-20.762883 24.548092-39.614229 23.162536-26.218128 53.4217-40.076764 87.507006-40.076764H894.178771c12.7023 0 22.998807 10.296507 22.998807 22.997783 0 12.700253-10.296507 22.99676-22.998807 22.996761H316.947094c-44.983517 0-64.535829 39.460734-68.267827 48.080041l-25.76071 140.320863h609.129155c71.315232 0 107.228163 67.681472 108.72219 70.562079a23.096021 23.096021 0 0 1 1.107217 2.483564l68.924789 183.068455c0.070608 0.193405 0.140193 0.387833 0.206708 0.581238 10.020214 28.944216 3.996011 49.713238-2.824325 62.036915-15.533788 28.074406-46.833655 36.002982-50.350758 36.816511a23.082718 23.082718 0 0 1-5.17179 0.586354H166.50778c-3.067872 0-5.989411-0.611937-8.665357-1.700735l-9.697873 52.81488c-3.224438 54.486962-50.472532 76.377528-75.259054 80.342839a23.085788 23.085788 0 0 1-3.632737 0.289596h-40.625256c-12.701277 0-22.997784-10.29753-22.997784-22.998807s10.29753-22.997784 22.998807-22.997783z m137.879254-131.741464h782.883477c5.174859-1.772366 14.552437-6.27696 18.640545-13.846356 3.212158-5.948479 3.078105-14.118556-0.397042-24.285102l-68.210522-181.184549c-3.747347-6.436596-27.808346-44.833091-67.37755-44.833091H218.200092c-1.252527 0-2.470261-0.127913-3.668552-0.320295l-48.562019 264.493953c0.180102-0.002047 0.356111-0.024559 0.538259-0.02456zM329.225745 83.7988c-44.626383 0-80.933287-36.304857-80.933287-80.92817s36.305881-80.928171 80.933287-80.928171c44.62536 0 80.931241 36.304857 80.931241 80.928171s-36.306904 80.928171-80.931241 80.92817z m0-111.288642c-16.742313 0-30.363542 13.621229-30.363542 30.360472 0 16.741289 13.621229 30.361495 30.363542 30.361495 16.741289 0 30.361495-13.620206 30.361495-30.361495 0-16.740266-13.621229-30.360472-30.361495-30.360472z m485.876016 111.288642c-44.624337 0-80.929194-36.304857-80.929194-80.92817s36.304857-80.928171 80.929194-80.928171c44.626383 0 80.933287 36.304857 80.933287 80.928171s-36.306904 80.928171-80.933287 80.92817z m0-111.288642c-16.739243 0-30.359448 13.621229-30.359448 30.360472 0 16.741289 13.621229 30.361495 30.359448 30.361495 16.744359 0 30.362518-13.620206 30.362518-30.361495 0-16.740266-13.621229-30.360472-30.362518-30.360472z"  horiz-adv-x="1024" />

    
    <glyph glyph-name="fenxiang" unicode="&#58887;" d="M997.210325 350.825979c-12.768693 0-19.153039-6.384346-19.153039-19.15304v-338.370358c0-44.690425-38.306078-82.996503-82.996503-82.996503H128.939217c-44.690425 0-82.996503 38.306078-82.996503 82.996503V714.733722c0 44.690425 38.306078 82.996503 82.996503 82.996503h248.989509c12.768693 0 19.153039 6.384346 19.153039 19.153039S390.697419 836.036303 377.928726 836.036303H128.939217C65.095753 836.036303 7.636636 778.577186 7.636636 714.733722v-721.431141C7.636636-70.540883 65.095753-128 128.939217-128h766.121566c63.843464 0 121.302581 57.459117 121.302581 121.302581V331.672939c0 12.768693-6.384346 19.153039-19.153039 19.15304zM499.231307 606.199834c-63.843464-63.843464-114.918235-153.224313-165.993006-274.526895-38.306078-89.380849-57.459117-159.60866-57.459117-159.608659 0-12.768693 6.384346-19.153039 12.768693-25.537386h6.384346c6.384346 0 19.153039 6.384346 19.153039 12.768693 0 0 76.612157 274.526894 217.067777 414.982515 57.459117 57.459117 146.839967 108.533888 255.373855 153.224313 82.996503 31.921732 153.224313 51.074771 153.224314 51.074771s6.384346 0 6.384346 6.384346L805.679934 638.121566c-6.384346-6.384346-6.384346-19.153039 0-31.921732 6.384346-6.384346 6.384346-6.384346 12.768692-6.384347s12.768693 0 12.768693 6.384347l165.993006 172.377352c6.384346 6.384346 6.384346 12.768693 6.384346 19.153039 0 6.384346-6.384346 12.768693-12.768692 12.768693L741.83647 893.495421c-12.768693 6.384346-19.153039 0-25.537386-12.768693-6.384346-12.768693 0-19.153039 12.768693-25.537385l146.839967-51.074771c-25.537386-6.384346-63.843464-19.153039-108.533889-38.306079-114.918235-44.690425-210.683431-102.149542-268.142548-159.608659z"  horiz-adv-x="1024" />

    
    <glyph glyph-name="fenlei" unicode="&#58896;" d="M416.914 347.429H124.343c-40.397 0-73.143-32.746-73.143-73.143v-292.572c0-40.397 32.746-73.143 73.143-73.143h292.571c40.397 0 73.143 32.746 73.143 73.143V274.286c0 40.397-32.746 73.143-73.143 73.143z m36.572-343.772c0-32.314-26.2-58.514-58.515-58.514H146.286c-32.315 0-58.515 26.2-58.515 58.514V252.343c0 32.314 26.2 58.514 58.515 58.514H394.97c32.315 0 58.515-26.2 58.515-58.514v-248.686z m191.575 417.96c59.75-59.72 156.636-59.72 216.386 0l81.145 81.101c59.75 59.721 59.75 156.555 0 216.276l-81.145 81.108c-59.75 59.722-156.635 59.722-216.386 0l-81.144-81.1c-59.75-59.722-59.75-156.555 0-216.277l81.144-81.108z m-48.69 275.756l70.326 70.29c47.806 47.777 125.308 47.777 173.115 0l70.327-70.29c47.806-47.777 47.806-125.242 0-173.02l-70.327-70.29c-47.807-47.776-125.309-47.776-173.115 0l-70.327 70.29c-47.799 47.778-47.799 125.243 0 173.02zM899.656 347.43H607.086c-40.397 0-73.143-32.746-73.143-73.143v-292.572c0-40.397 32.746-73.143 73.143-73.143h292.571c40.397 0 73.143 32.746 73.143 73.143V274.286c0 40.397-32.746 73.143-73.143 73.143z m36.572-343.772c0-32.314-26.2-58.514-58.515-58.514H629.03c-32.315 0-58.515 26.2-58.515 58.514V252.343c0 32.314 26.2 58.514 58.515 58.514h248.685c32.315 0 58.515-26.2 58.515-58.514v-248.686zM416.914 830.171H124.343c-40.397 0-73.143-32.746-73.143-73.142v-292.572c0-40.397 32.746-73.143 73.143-73.143h292.571c40.397 0 73.143 32.746 73.143 73.143V757.03c0 40.396-32.746 73.142-73.143 73.142zM453.486 486.4c0-32.315-26.2-58.514-58.515-58.514H146.286c-32.315 0-58.515 26.2-58.515 58.514V735.086c0 32.314 26.2 58.514 58.515 58.514H394.97c32.315 0 58.515-26.2 58.515-58.514V486.4z"  horiz-adv-x="1024" />

    
    <glyph glyph-name="mendianguanli" unicode="&#59011;" d="M270.848 451.072c26.282667-38.229333 70.485333-63.488 120.32-63.488 49.834667 0 94.037333 25.258667 120.32 63.488 26.282667-38.229333 70.485333-63.488 120.32-63.488s94.037333 25.258667 120.32 63.488c26.282667-38.229333 70.485333-63.488 120.32-63.488 38.912 0 74.581333 15.36 100.522667 43.52 24.917333 26.965333 38.570667 63.317333 38.570666 102.4l-1.024 7.509333-93.013333 241.664H98.986667l-93.013334-241.664-1.194666-3.925333-0.341334-3.584c0-80.384 65.536-145.92 145.92-145.92 50.005333 0 94.037333 25.088 120.490667 63.488z m-214.869333 76.970667l78.165333 203.264H882.346667l77.824-202.581334c-1.024-24.405333-9.728-46.592-24.917334-63.146666-16.213333-17.578667-38.058667-26.965333-62.805333-26.965334-52.224 0-94.72 42.496-94.72 94.72h-51.2c0-52.224-42.496-94.72-94.72-94.72s-94.72 42.496-94.72 94.72h-51.2c0-52.224-42.496-94.72-94.72-94.72s-94.72 42.496-94.72 94.72h-51.2c0-52.224-42.496-94.72-94.72-94.72-50.517333 0.170667-91.818667 39.765333-94.549333 89.429334zM166.229333 829.44c0.682667 0 1.194667 0 1.877334 0.170667H847.530667c0.682667-0.170667 1.536-0.170667 2.218666-0.170667 9.557333 0 17.237333 7.68 17.237334 17.237333s-7.68 17.237333-17.237334 17.237334c-0.682667 0-1.536 0-2.218666-0.170667h-679.424c-0.682667 0-1.194667 0.170667-1.877334 0.170667-9.557333 0-17.237333-7.68-17.237333-17.237334 0.170667-9.557333 7.850667-17.237333 17.237333-17.237333zM675.84-12.458667h-488.106667c-9.216 0-17.066667 7.850667-17.066666 17.066667v296.96c0 14.165333-11.434667 25.6-25.6 25.6s-25.6-11.434667-25.6-25.6v-296.96c0-37.717333 30.549333-68.266667 68.266666-68.266667h488.106667c14.165333 0 25.6 11.434667 25.6 25.6 0 13.994667-11.434667 25.6-25.6 25.6zM993.792 169.813333h-32.426667c-2.730667 10.752-6.997333 20.992-12.629333 30.208l22.869333 22.869334c5.12 5.12 5.12 13.653333 0 18.944L950.272 263.338667c-5.12 5.12-13.653333 5.12-18.944 0l-22.869333-22.869334c-9.386667 5.461333-19.456 9.898667-30.208 12.629334v32.426666c0 7.338667-5.973333 13.312-13.312 13.312H834.56c-7.338667 0-13.312-5.973333-13.312-13.312v-32.426666c-10.752-2.730667-20.992-6.997333-30.208-12.629334L768 263.338667c-5.12 5.12-13.653333 5.12-18.944 0l-21.504-21.504c-5.12-5.12-5.12-13.653333 0-18.944L750.592 200.192c-5.461333-9.386667-9.898667-19.456-12.629333-30.208h-32.426667c-7.338667 0-13.312-5.973333-13.312-13.312v-30.378667c0-7.338667 5.973333-13.312 13.312-13.312h32.426667c2.730667-10.752 6.997333-20.992 12.629333-30.208l-22.869333-22.869333c-5.12-5.12-5.12-13.653333 0-18.944L749.226667 19.285333c5.12-5.12 13.653333-5.12 18.944 0l22.869333 22.869334c9.386667-5.461333 19.456-9.898667 30.208-12.629334v-32.426666c0-7.338667 5.973333-13.312 13.312-13.312h30.378667c7.338667 0 13.312 5.973333 13.312 13.312v32.426666c10.752 2.730667 20.992 6.997333 30.208 12.629334l22.869333-22.869334c5.12-5.12 13.653333-5.12 18.944 0l21.504 21.504c5.12 5.12 5.12 13.653333 0 18.944L948.906667 82.602667c5.461333 9.386667 9.898667 19.456 12.629333 30.208h32.426667c7.338667 0 13.312 5.973333 13.312 13.312v30.378666c-0.170667 7.338667-6.144 13.312-13.482667 13.312z m-144.042667-86.016c-31.744 0-57.685333 25.770667-57.685333 57.685334 0 31.744 25.770667 57.685333 57.685333 57.685333s57.685333-25.770667 57.685334-57.685333c0-31.914667-25.941333-57.685333-57.685334-57.685334z"  horiz-adv-x="1024" />

    
    <glyph glyph-name="zhifumimaxiugai" unicode="&#58892;" d="M844.8 512H281.6v102.4c0 128 102.4 230.4 230.4 230.4s227.84-102.4 230.4-230.4v-25.6h48.64c0 7.68 2.56 17.92 2.56 25.6 0 156.16-125.44 281.6-281.6 281.6C363.52 896 243.2 780.8 230.4 634.88V512H179.2c-56.32 0-102.4-46.08-102.4-102.4v-435.2c0-56.32 46.08-102.4 102.4-102.4h665.6c56.32 0 102.4 46.08 102.4 102.4V409.6c0 56.32-46.08 102.4-102.4 102.4z m51.2-512c0-56.32-20.48-76.8-76.8-76.8H204.8c-56.32 0-76.8 20.48-76.8 76.8V384c0 56.32 20.48 76.8 76.8 76.8h614.4c56.32 0 76.8-20.48 76.8-76.8v-384z m-281.6 204.8c15.36 0 25.6 10.24 25.6 25.6s-10.24 25.6-25.6 25.6h-69.12l87.04 84.48c10.24 10.24 10.24 25.6 0 35.84-10.24 10.24-25.6 10.24-33.28 0L512 289.28l-81.92 76.8c-10.24 10.24-25.6 10.24-35.84 0-10.24-10.24-10.24-25.6 0-35.84l79.36-74.24H409.6c-15.36 0-25.6-10.24-25.6-25.6s10.24-25.6 25.6-25.6h76.8v-51.2h-76.8c-15.36 0-25.6-10.24-25.6-25.6s10.24-25.6 25.6-25.6h76.8v-76.8c0-15.36 10.24-25.6 25.6-25.6s25.6 10.24 25.6 25.6v76.8h76.8c15.36 0 25.6 10.24 25.6 25.6s-10.24 25.6-25.6 25.6h-76.8v51.2h76.8z"  horiz-adv-x="1024" />

    
    <glyph glyph-name="shibai" unicode="&#58908;" d="M512.133333 894.533333C230.266667 894.533333 1.733333 666 1.733333 384.133333s228.533333-510.4 510.4-510.4 510.4 228.533333 510.4 510.4S794 894.533333 512.133333 894.533333z m247.6-694.933333c8.4-8.4 13.2-19.733333 13.2-31.6s-4.8-23.2-13.2-31.6c-8.4-8.4-19.733333-13.2-31.6-13.2-11.866667 0-23.2 4.8-31.6 13.2L514.933333 318 333.466667 136.4c-8.4-8.4-19.733333-13.2-31.6-13.2s-23.333333 4.8-31.6 13.2c-8.4 8.4-13.2 19.733333-13.2 31.6s4.8 23.2 13.2 31.6l181.6 181.6-181.733334 181.6c-8.4 8.4-13.2 19.733333-13.2 31.6 0 11.866667 4.8 23.333333 13.2 31.6 8.4 8.4 19.733333 13.2 31.6 13.2s23.333333-4.8 31.6-13.2l181.6-181.6 181.6 181.6c8.4 8.4 19.733333 13.2 31.6 13.2 11.866667 0 23.2-4.8 31.6-13.2 8.4-8.4 13.2-19.733333 13.2-31.6 0-11.866667-4.8-23.333333-13.2-31.6L578.266667 381.2l181.466666-181.6z"  horiz-adv-x="1024" />

    
    <glyph glyph-name="zhuanhx" unicode="&#58978;" d="M975.462029 468.647889c-16.857946 40.389896-41.544185 75.945693-73.375148 105.681947-35.866882 33.507138-81.246419 59.979046-134.877897 78.683037-14.161534 4.935406-29.652344-2.537799-34.589796-16.703427-4.939499-14.162558 2.537799-29.649274 16.701381-34.589796 86.771249-30.259164 145.989979-82.071204 176.011736-153.99735 24.153096-57.867966 24.842805-118.244055 21.169135-158.703535-4.26821-46.987151-16.018835-85.463464-22.874987-99.864452-26.550703-55.755862-113.209388-189.510168-140.064012-230.582609h-106.464777v41.282219a27.161616 27.161616 0 0 1-9.683547 20.791535 27.15343 27.15343 0 0 1-22.148439 5.962806c-95.860255-16.737196-156.222017-6.632047-156.746974-6.540974a27.16571 27.16571 0 0 1-26.133193-9.924023l-34.21322-43.422975H320.219627v96.686062a27.15957 27.15957 0 0 1-18.773575 25.833365c-45.817512 14.875802-85.720314 46.255487-118.600166 93.271291-25.38618 36.296671-36.722366 68.64952-36.81651 68.918649a27.16571 27.16571 0 0 1-15.006785 16.194844l-51.979862 22.277376V396.384052h41.281195a27.161616 27.161616 0 0 1 25.820062 18.729573c22.935362 70.245877 93.796246 122.868375 94.476745 123.367749a27.161616 27.161616 0 0 1 4.140297 40.168861c-32.242332 35.634592-38.774095 63.222927-39.398312 78.163197 86.393649 21.027919 189.200106-25.980721 190.263322-26.474977a27.172873 27.172873 0 0 1 14.010085-2.440586 1480.099852 1480.099852 0 0 0 26.841321 2.241041c14.960737 1.108241 26.188452 14.133905 25.080212 29.092595-1.109264 14.959713-14.129812 26.189476-29.094642 25.080212a1541.754051 1541.754051 0 0 1-20.812001-1.689479c-29.27372 12.378935-142.875035 55.234999-240.113683 20.730137a27.1565 27.1565 0 0 1-16.417925-16.247032c-2.181689-5.951549-18.031679-55.589063 31.42471-122.996289-24.391527-21.937638-63.022359-62.203714-84.96716-113.405863H51.881113c-15.000646 0-27.160593-12.159948-27.160594-27.160593v-151.550625a27.160593 27.160593 0 0 1 16.461927-24.965601l57.944714-24.832571c14.328333-34.514071 63.641459-134.917806 166.771281-177.692005v-104.944144c0-15.000646 12.159948-27.160593 27.160593-27.160593h148.292418a27.164686 27.164686 0 0 1 21.333887 10.351765l32.896225 41.75294c22.533202-2.137687 66.858734-4.119831 127.19389 3.739161v-36.830837c0-15.000646 12.158924-27.160593 27.160593-27.160593h148.290371a27.160593 27.160593 0 0 1 22.663163 12.190647c4.833075 7.317663 118.754684 180.004677 151.779845 249.360277 10.570753 22.194488 23.303752 67.381643 27.929096 118.305453 4.231371 46.578852 3.305279 116.405173-25.136493 184.542017zM502.143003 604.401736c-20.23895-2.64934-32.470529-6.007831-33.977859-6.435573-14.430664-4.093225-22.813588-19.10922-18.720364-33.541931 4.093225-14.430664 19.10922-22.811542 33.541931-18.720363 0.99977 0.284479 101.267405 27.739784 219.770356-23.260773a27.051099 27.051099 0 0 1 10.724249-2.220575c10.521634 0 20.536732 6.152117 24.961508 16.431228 5.929036 13.779841-0.432859 29.756721-14.211677 35.685757a436.829973 436.829973 0 0 1-40.167838 14.992459c38.267559 26.225291 63.464427 70.542636 63.464427 120.697943 0 80.350003-64.664765 145.718803-144.149051 145.718802-79.483262 0-144.149051-65.3688-144.149051-145.718802 0-40.502459 16.435321-77.19208 42.913369-103.628172z m101.233636 195.026811c49.53109 0 89.826841-41.000809 89.826841-91.397616 0-50.39783-40.296775-91.39864-89.826841-91.39864-49.53109 0-89.826841 41.001833-89.826842 91.39864 0 50.395784 40.296775 91.397616 89.826842 91.397616zM238.402203 405.61939c0-30.138414 24.51944-54.659901 54.659901-54.659901s54.659901 24.51944 54.6599 54.659901-24.51944 54.659901-54.6599 54.659901c-30.139437 0-54.659901-24.521486-54.659901-54.659901z m54.995545 0a0.337691 0.337691 0 1 0-0.675382-0.001023 0.337691 0.337691 0 0 0 0.675382 0.001023z"  horiz-adv-x="1024" />

    
    <glyph glyph-name="qing" unicode="&#58893;" d="M864 352v64h128v-64H864zM738.272 655.52l90.496 90.528 45.248-45.248-90.496-90.528-45.248 45.248zM512 128c-141.376 0-256 114.624-256 256s114.624 256 256 256 256-114.624 256-256-114.656-256-256-256z m0 448.416c-106.272 0-192.416-86.144-192.416-192.416 0-106.272 86.144-192.416 192.416-192.416 106.272 0 192.416 86.144 192.416 192.416 0 106.272-86.144 192.416-192.416 192.416zM480 864h64v-128h-64V864zM149.952 700.8l45.248 45.248 90.496-90.528-45.248-45.248-90.496 90.528zM160 352H32v64h128v-64z m125.696-239.52L195.2 21.984000000000037l-45.248 45.248 90.496 90.528 45.248-45.28zM544-96h-64V32h64v-128z m330.016 163.232l-45.248-45.248-90.496 90.528 45.248 45.248 90.496-90.528z"  horiz-adv-x="1024" />

    
    <glyph glyph-name="wode1" unicode="&#58909;" d="M853.372996-128H193.472461c-52.830119 0-193.472461 0-193.472461 136.358819 0 114.941204 265.816407 221.791308 393.132233 247.492448a95.189403 95.189403 0 0 1 4.997444 26.653032v15.468278a305.082036 305.082036 0 0 0-115.179177 153.968859 98.521032 98.521032 0 0 0-44.263073 79.959099v67.108528a64.252847 64.252847 0 0 0 26.653033 53.306066C282.9505 815.564955 367.431095 895.048106 523.303742 895.048106s241.543109-81.148966 258.201255-247.968394a79.245178 79.245178 0 0 0 25.939112-58.779456v-68.060423a79.007204 79.007204 0 0 0-44.73902-71.392052 302.226354 302.226354 0 0 0-114.465256-151.589124v-16.420172a84.956542 84.956542 0 0 1 4.997443-25.463165C780.553102 229.912154 1047.08343 123.06205 1047.08343 7.406925c0-135.406925-145.639786-135.406925-193.710434-135.406925zM523.541715 850.54706c-135.168952 0-201.087613-65.680688-214.176156-214.176156v-13.802463l-12.612596-5.235418a19.037881 19.037881 0 0 1-11.660702-17.848013v-68.774343a50.92633 50.92633 0 0 1 26.415059-43.311178l9.518941-4.04555 3.093655-9.756914a258.201255 258.201255 0 0 1 109.22984-144.687892l11.184755-6.663258v-42.121311a141.356263 141.356263 0 0 0-13.802464-55.447827l-4.997443-10.708808-11.660702-1.903788c-151.827097-25.939112-367.669068-136.358819-367.669068-204.895189 0-64.49082 42.835231-90.90588 148.019521-90.90588h660.138508c105.18429 0 148.019521 26.415059 148.019521 90.90588 0 73.771787-229.644434 181.811759-368.145015 205.371136l-11.422728 1.903788-5.235417 10.232861a133.02719 133.02719 0 0 0-14.040437 54.97188v42.835231l11.184755 6.663259a255.82152 255.82152 0 0 1 108.991866 142.784104l3.569602 11.184755 11.422729 3.569602a33.792238 33.792238 0 0 1 23.79735 32.364397v70.202185a33.792238 33.792238 0 0 1-14.99233 28.080873l-9.042994 6.187312v10.946781c-13.802463 149.447362-79.721125 216.079944-215.12805 216.079944z"  horiz-adv-x="1047" />

    
    <glyph glyph-name="gengduo" unicode="&#58886;" d="M223.962 288.102c-52.98 0-95.983 43.004-95.983 95.984s43.003 95.984 95.983 95.984c52.981 0 95.984-43.004 95.984-95.984s-43.003-95.984-95.984-95.984zM511.914 288.102c-52.98 0-95.984 43.004-95.984 95.984s43.004 95.984 95.984 95.984 95.984-43.004 95.984-95.984-43.004-95.984-95.984-95.984zM800.038 288.102c-52.98 0-95.984 43.004-95.984 95.984s43.003 95.984 95.984 95.984 95.984-43.004 95.984-95.984-43.176-95.984-95.984-95.984z"  horiz-adv-x="1024" />

    
    <glyph glyph-name="shezhi-zhanghuanquan" unicode="&#58929;" d="M511.906909-127.674182c-146.385455 0-418.536727 228.305455-418.536727 444.136727V746.356364l38.493091 0.651636c1.024 0 95.511273 2.187636 192.558545 42.309818 97.745455 40.494545 161.978182 87.226182 164.631273 89.181091l22.807273 16.942546 23.272727-17.128728c6.795636-4.980364 69.445818-49.710545 164.352-88.994909 97.419636-40.261818 192.046545-42.263273 192.977454-42.309818l37.981091-0.651636 0.186182-429.940364c0-215.831273-272.290909-444.043636-418.722909-444.043636zM140.660364 698.926545v-382.464c0-182.085818 245.387636-395.636364 371.246545-395.636363 125.905455 0 371.432727 213.550545 371.432727 395.636363l-0.186181 382.464c-26.996364 1.536-113.245091 9.029818-201.355637 45.428364-89.506909 37.050182-150.946909 78.056727-169.890909 91.415273A931.700364 931.700364 0 0 0 342.109091 744.401455c-88.436364-36.584727-174.731636-44.032-201.448727-45.47491zM488.587636 221.370182l-156.765091 160.581818 33.466182 34.210909 123.345455-126.324364L716.8 523.636364l33.466182-34.257455z"  horiz-adv-x="1024" />

    
    <glyph glyph-name="guanbi" unicode="&#59064;" d="M466.37239 383.835423L0.881937 849.325876l46.542462 46.542462L512.914852 430.443716l465.490454 465.424622 46.542462-46.542462L559.523145 383.835423l465.424623-465.490454-46.542462-46.542462L512.914852 337.22713l-465.490453-465.424623-46.542462 46.542462L466.306559 383.835423z"  horiz-adv-x="1062" />

    
    <glyph glyph-name="daipinglun" unicode="&#58889;" d="M866.637 779.865H157.304c-51.461 0-93.333-41.872-93.333-93.333v-485.333c0-51.461 41.872-93.333 93.333-93.333h88.266l119.729-119.729 119.729 119.729h381.609c51.461 0 93.333 41.872 93.333 93.333V686.531c0.001 51.461-41.872 93.334-93.333 93.334z m56-578.667c0-30.88-25.12-56-56-56H469.569l-104.27-104.271-104.271 104.271H157.304c-30.88 0-56 25.12-56 56V686.531c0 30.88 25.12 56 56 56h709.333c30.88 0 56-25.12 56-56v-485.333zM719.637 554.306H196.971c-10.309 0-18.667-8.358-18.667-18.667 0-10.309 8.358-18.667 18.667-18.667h522.667c10.309 0 18.667 8.358 18.667 18.667 0 10.309-8.359 18.667-18.668 18.667zM532.971 400.306h-336c-10.309 0-18.667-8.358-18.667-18.667s8.358-18.667 18.667-18.667h336c10.309 0 18.667 8.358 18.667 18.667s-8.359 18.667-18.667 18.667z"  horiz-adv-x="1024" />

    
    <glyph glyph-name="richscan_icon" unicode="&#58977;" d="M39.78 495.11c0.003-0 0.006-0 0.010-0 15.337 0 27.77 12.433 27.77 27.77 0 0.004-0 0.007-0 0.011l0 305.549h305.55c15.342 0 27.78 12.438 27.78 27.78s-12.438 27.78-27.78 27.78h-333.33c-0.003 0-0.006 0-0.010 0-15.337 0-27.77-12.433-27.77-27.77 0-0.004 0-0.007 0-0.011l-0-333.329c-0-0.003-0-0.006-0-0.010 0-15.337 12.433-27.77 27.77-27.77 0.004 0 0.007 0 0.011 0zM373.11-60.44h-305.55v305.55c0 15.342-12.438 27.78-27.78 27.78s-27.78-12.438-27.78-27.78v-333.33c-0-0.003-0-0.006-0-0.010 0-15.337 12.433-27.77 27.77-27.77 0.004 0 0.007 0 0.011 0l333.329-0c15.342 0 27.78 12.438 27.78 27.78 0 15.342-12.438 27.78-27.78 27.78zM984.22 884h-333.33c-15.342 0-27.78-12.438-27.78-27.78s12.438-27.78 27.78-27.78h305.55v-305.55c0-0 0-0 0-0 0-15.342 12.438-27.78 27.78-27.78 15.342 0 27.78 12.438 27.78 27.78 0 0 0 0 0 0v333.33c0 0.006 0 0.013 0 0.020 0 15.331-12.429 27.76-27.76 27.76-0.007 0-0.014-0-0.021-0zM984.22 272.89c-0.006 0-0.013 0-0.020 0-15.331 0-27.76-12.429-27.76-27.76 0-0.007 0-0.014 0-0.021l-0-305.549h-305.55c-0 0-0 0-0 0-15.342 0-27.78-12.438-27.78-27.78 0-15.342 12.438-27.78 27.78-27.78 0 0 0 0 0 0h333.33c0.006-0 0.013-0 0.020-0 15.331 0 27.76 12.429 27.76 27.76 0 0.007-0 0.014-0 0.021l0 333.329c0 0.006 0 0.013 0 0.020 0 15.331-12.429 27.76-27.76 27.76-0.007 0-0.014-0-0.021-0zM984.22 411.78h-944.44c-15.342-0-27.78-12.438-27.78-27.78 0-15.342 12.438-27.78 27.78-27.78h944.44c15.342 0 27.78 12.438 27.78 27.78s-12.438 27.78-27.78 27.78z"  horiz-adv-x="1024" />

    
    <glyph glyph-name="hongbao-f" unicode="&#58983;" d="M902.628125 670.6125v77.971875A104.26875001 104.26875001 0 0 1 798.4625 852.75H225.5375A104.26875001 104.26875001 0 0 1 121.371875 748.584375v-729.16875A104.26875001 104.26875001 0 0 1 225.5375-84.75h572.925a104.26875001 104.26875001 0 0 1 104.165625 104.165625V670.584375a0.215625 0.215625 0 0 0 0 0.028125zM225.5375 800.6625h572.925a52.153125 52.153125 0 0 0 52.0875-52.0875v-60.9375L583.821875 573.309375a183.375 183.375 0 0 0-143.634375 0L173.459375 687.61875001v60.93749998a52.153125 52.153125 0 0 0 52.078125 52.10625001z m572.925-833.325H225.5375a52.153125 52.153125 0 0 0-52.0875 52.0875V630.975l246.234375-105.525a235.246875 235.246875 0 0 1 184.63125 0l246.225 105.525v-611.559375a52.153125 52.153125 0 0 0-52.078125-52.078125zM610.015625 417.853125L512 344.353125l-98.015625 73.5a26.034375 26.034375 0 0 1-31.22812499-41.653125l103.19999998-77.4v-6.421875H421.0625a26.04375001 26.04375001 0 0 1 0-52.0875h64.875v-38.8125H421.0625a26.04375001 26.04375001 0 1 1 0-52.0875h64.875v-64.875a26.04375001 26.04375001 0 1 1 52.0875 0v64.875H602.9375a26.04375001 26.04375001 0 1 1 0 52.0875h-64.875v38.8125H602.9375a26.04375001 26.04375001 0 0 1 0 52.0875h-64.875v6.421875l103.2 77.4a26.034375 26.034375 0 0 1-31.228125 41.653125z"  horiz-adv-x="1024" />

    
    <glyph glyph-name="leizhenyu" unicode="&#58975;" d="M674.001293 273.49159199999997c7.732245 0.543347 15.401796 1.170286 23.008653 1.880816 151.781878 10.323592 253.241469 97.886041 253.84751 204.382041 0.501551 87.228082-67.103347 161.750204-175.375673 191.529796C772.200803 795.982367 665.203252 896 533.33713 896c-102.797061 0-190.547592-60.792163-225.802449-146.703673a76.779102 76.779102 0 0 1-47.271184 16.216816c-42.318367 0-76.486531-34.105469-76.298449-76.152163 0.041796-9.759347 1.922612-19.100735 5.32898-27.689796C119.787416 627.314939 72.683416 558.748735 73.143171 479.754449c0.501551-86.872816 58.15902-161.144163 139.15951-191.153633a133.22449 133.22449 0 0 1 34.147265-9.696653c14.54498-2.925714 29.612408-4.493061 45.056-4.534857 18.849959-1.337469 39.246367-2.25698 61.481796-2.86302a17.909551 17.909551 0 0 1 4.785633 11.932734c0 6.896327-4.179592 13.270204-8.526368 18.034939-29.80049 1.462857-55.40049 4.137796-77.803102 8.986123-84.78302 13.959837-164.257959 65.933061-164.257959 169.022694 0 91.616653 64.783673 144.48849 135.878531 167.246367-11.075918 9.027918-19.66498 23.238531-19.727674 39.915102-0.083592 20.981551 16.404898 35.860898 38.055184 37.99249 21.650286 2.15249 22.716082-2.006204 35.066775-6.708245 18.243918-9.11151 28.692898-19.372408 33.854694-25.579102 13.855347 91.783837 99.265306 167.225469 200.641306 167.225469 111.260735 0 207.809306-86.705633 207.516735-191.425306-0.041796-9.989224 1.588245-17.993143 0-27.585306 110.612898-17.324408 182.564571-84.699429 182.564572-161.081469 0-76.361143-92.180898-157.988571-213.054694-169.900409-11.138612-1.94351-22.945959-3.510857-35.317551-4.743836-3.698939-3.845224-6.520163-8.714449-6.520164-14.670368 0-6.645551 3.510857-12.267102 7.857633-16.676571zM632.539742 550.556735l-86.726531-264.484572h93.309388l-260.179592-294.59853 114.416327 294.59853h-114.437225zM310.836558 141.66726500000004c-18.703673 5.726041-30.448327 21.60849-24.346122 41.586939 6.123102 19.999347 48.128 36.780408 48.128 36.780408s25.788082-37.511837 19.685877-57.490285c-6.123102-19.999347-24.743184-26.603102-43.467755-20.89796z m308.098613-8.630857c-18.724571 5.726041-30.448327 21.629388-24.346123 41.607837 6.123102 19.999347 48.128 36.780408 48.128 36.780408s25.788082-37.511837 19.685878-57.511184c-6.123102-19.978449-24.743184-26.603102-43.467755-20.877061zM248.56064 22.193632999999977c-18.724571 5.726041-30.469224 21.629388-24.346122 41.607836 6.102204 19.999347 48.107102 36.780408 48.107102 36.780409s25.80898-37.511837 19.685877-57.511184c-6.102204-19.978449-24.722286-26.603102-43.467755-20.877061z m308.098612-8.60996c-18.724571 5.726041-30.469224 21.60849-24.346122 41.586939 6.102204 19.999347 48.107102 36.780408 48.107102 36.780408s25.788082-37.511837 19.685877-57.490285c-6.102204-19.999347-24.722286-26.603102-43.467755-20.897959zM192.888477-122.77551000000005c-18.724571 5.726041-30.469224 21.60849-24.346123 41.586939 6.102204 19.999347 48.107102 36.780408 48.107102 36.780408s25.80898-37.511837 19.685878-57.490286c-6.102204-19.999347-24.722286-26.603102-43.467755-20.897959z m305.778939 0c-18.724571 5.726041-30.448327 21.60849-24.346123 41.586939C480.423497-61.16832699999998 522.449293-44.408162999999945 522.449293-44.408162999999945s25.788082-37.511837 19.685878-57.490286c-6.123102-19.999347-24.743184-26.603102-43.467755-20.897959z m-158.552817 0c-18.724571 5.726041-30.469224 21.60849-24.346122 41.586939 6.102204 19.999347 48.128 36.780408 48.128 36.780408s25.788082-37.511837 19.664979-57.490286c-6.102204-19.999347-24.722286-26.603102-43.446857-20.897959z"  horiz-adv-x="1024" />

    
    <glyph glyph-name="daifukuan1" unicode="&#58888;" d="M886.030 197.5v-179.111c0-33.158-26.977-60.138-60.137-60.138h-726.693c-33.158 0-60.137 26.978-60.137 60.138v731.221c0 33.158 26.977 60.138 60.137 60.138h726.695c33.158 0 60.137-26.978 60.137-60.138v-180.963h37.258v180.963c0 53.705-43.691 97.395-97.394 97.395h-726.695c-53.703 0-97.394-43.691-97.394-97.395v-731.22c0-53.703 43.691-97.395 97.394-97.395h726.695c53.703 0 97.394 43.692 97.394 97.395v179.11h-37.259zM961.789 244.351h-457.465c-33.309 0-60.405 30.075-60.405 67.042v144.317c0 36.969 27.099 67.043 60.405 67.043h457.465c33.308 0 60.405-30.075 60.405-67.043v-144.317c0-36.967-27.099-67.042-60.405-67.042zM504.323 485.498c-12.547 0-23.148-13.639-23.148-29.786v-144.317c0-16.145 10.601-29.785 23.148-29.785h457.465c12.547 0 23.148 13.639 23.148 29.785v144.315c0 16.146-10.599 29.786-23.148 29.786h-457.465zM857.853 384.979c0-15.667 12.701-28.367 28.367-28.367s28.367 12.701 28.367 28.367c0 15.667-12.701 28.367-28.367 28.367-15.667 0-28.367-12.701-28.367-28.367z"  horiz-adv-x="1024" />

    
    <glyph glyph-name="xiaoliang" unicode="&#58930;" d="M415.288889 418.133333c-17.066667 0-34.133333-17.066667-34.133333-34.133333v-477.866667c0-17.066667 17.066667-34.133333 34.133333-34.133333s34.133333 17.066667 34.133333 34.133333V384c0 17.066667-17.066667 34.133333-34.133333 34.133333z m-256-204.8c-17.066667 0-34.133333-17.066667-34.133333-34.133333v-273.066667c0-17.066667 17.066667-34.133333 34.133333-34.133333s34.133333 17.066667 34.133333 34.133333v273.066667c0 17.066667-17.066667 34.133333-34.133333 34.133333z m512 68.266667c-17.066667 0-34.133333-17.066667-34.133333-34.133333v-341.333334c0-17.066667 17.066667-34.133333 34.133333-34.133333s34.133333 17.066667 34.133333 34.133333v341.333334c0 17.066667-17.066667 34.133333-34.133333 34.133333z m256 136.533333c-17.066667 0-34.133333-17.066667-34.133333-34.133333v-477.866667c0-17.066667 17.066667-34.133333 34.133333-34.133333s34.133333 17.066667 34.133333 34.133333V384c0 17.066667-17.066667 34.133333-34.133333 34.133333z m73.955555 472.177778c-5.688889 5.688889-11.377778 5.688889-22.755555 0H796.444444c-17.066667 0-34.133333-17.066667-34.133333-34.133333s17.066667-34.133333 34.133333-34.133334h108.088889L603.022222 497.777778l-233.244444 244.622222c-11.377778 11.377778-22.755556 11.377778-34.133334 5.688889-5.688889 0-11.377778-5.688889-11.377777-5.688889l-312.888889-335.644444c-11.377778-11.377778-11.377778-34.133333 0-51.2 11.377778-11.377778 34.133333-11.377778 45.511111 0l295.822222 318.577777 233.244445-250.311111c11.377778-11.377778 34.133333-11.377778 45.511111 0l324.266666 347.022222v-125.155555c0-17.066667 17.066667-34.133333 34.133334-34.133333s34.133333 17.066667 34.133333 34.133333v204.8c0 22.755556-11.377778 34.133333-22.755556 39.822222z"  horiz-adv-x="1024" />

    
    <glyph glyph-name="shanchu" unicode="&#58895;" d="M972.8 708.266667H682.666667v68.266666c0 6.826667 0 34.133333-34.133334 34.133334h-269.653333c-30.72 0-40.96-17.066667-40.96-34.133334v-68.266666H51.2c-10.24 0-17.066667-6.826667-17.066667-17.066667s6.826667-17.066667 17.066667-17.066667H170.666667v-624.64c0-47.786667 40.96-92.16 85.333333-92.16h522.24c51.2 0 78.506667 47.786667 78.506667 92.16V674.133333h119.466666c6.826667 0 13.653333 6.826667 13.653334 17.066667s-6.826667 17.066667-17.066667 17.066667zM375.466667 776.533333h273.066666v-68.266666h-273.066666v68.266666z m443.733333-727.04c0-27.306667-13.653333-58.026667-44.373333-58.026666H256c-27.306667 0-51.2 30.72-51.2 58.026666V674.133333h614.4v-624.64zM358.4 503.466667c-10.24 0-17.066667-6.826667-17.066667-17.066667v-341.333333c0-10.24 6.826667-17.066667 17.066667-17.066667s17.066667 6.826667 17.066667 17.066667V486.4c0 10.24-6.826667 17.066667-17.066667 17.066667zM529.066667 503.466667c-10.24 0-17.066667-6.826667-17.066667-17.066667v-341.333333c0-10.24 6.826667-17.066667 17.066667-17.066667s17.066667 6.826667 17.066666 17.066667V486.4c0 10.24-6.826667 17.066667-17.066666 17.066667zM648.533333 486.4v-341.333333c0-10.24 6.826667-17.066667 17.066667-17.066667s17.066667 6.826667 17.066667 17.066667V486.4c0 10.24-6.826667 17.066667-17.066667 17.066667s-17.066667-6.826667-17.066667-17.066667z"  horiz-adv-x="1024" />

    
    <glyph glyph-name="redian-f" unicode="&#58961;" d="M781.198222 739.2142220000001a37.091556 37.091556 0 0 1-62.122666-29.354666 371.143111 371.143111 0 0 0-15.701334-121.287112C669.923556 676.864 595.512889 827.733333 464.896 873.244444a36.181333 36.181333 0 0 1-32.540444-5.461333 38.229333 38.229333 0 0 1-15.246223-32.312889c4.778667-109.909333-73.728-238.478222-117.873777-301.511111a308.110222 308.110222 0 0 1-78.506667 129.024A36.181333 36.181333 0 0 1 177.948444 668.444444 37.774222 37.774222 0 0 1 159.288889 629.76a239.388444 239.388444 0 0 0-35.271111-174.307556 316.302222 316.302222 0 0 1-47.104-163.384888c0-231.651556 184.092444-400.042667 437.589333-400.042667s437.589333 168.163556 437.589333 400.042667c-1.137778 255.089778-107.406222 389.802667-170.894222 447.146666zM513.365333-59.733333000000016c-226.190222 0-390.257778 148.366222-390.257777 352.711111a269.198222 269.198222 0 0 0 41.415111 141.084444 285.127111 285.127111 0 0 1 43.690666 172.942222 310.840889 310.840889 0 0 0 55.978667-129.479111l8.874667-53.930666 33.905777 41.415111c6.599111 7.964444 155.875556 191.829333 157.696 357.944889C614.4 758.1013330000001 678.115556 514.161778 678.798222 511.658667l15.473778-60.074667 28.444444 55.296a453.518222 453.518222 0 0 1 43.918223 180.906667c57.799111-59.619556 136.533333-182.044444 136.533333-395.719111C903.850667 87.49511099999995 739.555556-59.733333000000016 513.365333-59.733333000000016zM554.097778 516.664889a22.755556 22.755556 0 0 1-42.097778-7.509333 548.408889 548.408889 0 0 0-91.022222-212.536889l-5.688889-7.964445a343.608889 343.608889 0 0 1-57.799111-102.627555 95.800889 95.800889 0 0 1 47.559111-116.508445 150.414222 150.414222 0 0 1 71.907555-17.294222 166.570667 166.570667 0 0 1 54.158223 9.102222A134.030222 134.030222 0 0 1 614.4 133.91644399999996c35.953778 83.968 16.156444 179.541333-1.820444 244.394667a417.792 417.792 0 0 1-58.481778 138.353778z m16.156444-364.088889a86.926222 86.926222 0 0 0-53.475555-47.559111 113.777778 113.777778 0 0 0-87.836445 5.233778 48.696889 48.696889 0 0 0-24.803555 62.122666A304.696889 304.696889 0 0 0 455.111111 259.982222l5.688889 7.964445a535.893333 535.893333 0 0 1 82.375111 171.121777 669.468444 669.468444 0 0 0 22.755556-73.728c16.611556-57.799111 34.360889-142.677333 4.323555-212.992z"  horiz-adv-x="1024" />

    
    <glyph glyph-name="daohang" unicode="&#58884;" d="M512.081477-128C359.55697-128 93.779758 262.110757 93.779758 485.845958a418.301719 418.301719 0 0 0 836.440484 0c0-234.653087-281.420751-613.845958-418.138765-613.845958z m0 991.409293A385.711012 385.711012 0 0 1 126.370465 485.520051c0-216.076384 262.844048-580.929344 385.711012-580.929344 108.85296 0 385.385105 356.379376 385.548058 581.092297A384.733291 384.733291 0 0 1 519.740293 863.409293zM510.614895 320.122215a139.814131 139.814131 0 1 0 139.814131 139.814131 139.977085 139.977085 0 0 0-139.814131-139.814131z m0 247.037556a107.223425 107.223425 0 1 1 107.223425-107.223425 107.386378 107.386378 0 0 1-107.223425 107.223425z"  horiz-adv-x="1024" />

    
    <glyph glyph-name="shouye" unicode="&#58883;" d="M819.2-118.69H204.8c-51.2 0-93.09 41.89-93.09 93.09V351.418c0 11.637 9.308 23.273 23.272 23.273 11.636 0 23.273-9.31 23.273-23.273V-25.6c0-25.6 20.945-46.545 46.545-46.545h612.073c25.6 0 46.545 20.945 46.545 46.545V351.418c0 11.637 9.31 23.273 23.273 23.273 11.636 0 23.273-9.31 23.273-23.273V-25.6c0-53.527-39.564-93.09-90.764-93.09zM9.31 390.981C0 400.29 0 414.255 9.31 423.564L446.835 861.09C481.746 896 542.255 896 577.164 861.09l437.527-437.527c9.309-9.31 9.309-23.273 0-32.582-9.31-9.31-23.273-9.31-32.582 0L544.582 828.509c-18.618 18.618-46.546 18.618-65.164 0L41.891 390.982c-9.31-9.31-23.273-9.31-32.582 0z"  horiz-adv-x="1024" />

    
    <glyph glyph-name="duoyunzhuanqing" unicode="&#59008;" d="M281.583 734.975c3.157-7.773 10.644-12.486 18.546-12.486 2.507 0 5.057 0.474 7.522 1.476 10.24 4.158 15.167 15.83 11.01 26.068L292.128 815.36c-4.158 10.24-15.831 15.168-26.067 11.01-10.24-4.158-15.168-15.83-11.01-26.068l26.532-65.327zM78.551 605.8299999999999l64.954-27.433a19.946 19.946 0 0 1 7.776-1.582c7.802 0 15.216 4.591 18.441 12.23 4.3 10.18-0.467 21.918-10.647 26.217l-64.954 27.432c-10.18 4.299-21.92-0.467-26.217-10.648-4.3-10.18 0.467-21.918 10.647-26.217zM157.394 371.95500000000004c10.239 4.157 15.167 15.827 11.01 26.066-4.16 10.24-15.83 15.173-26.068 11.01l-65.328-26.533c-10.24-4.158-15.168-15.828-11.01-26.067 3.157-7.773 10.644-12.486 18.546-12.486a19.93 19.93 0 0 1 7.522 1.477l65.328 26.533zM651.36 574.153c2.507 0 5.056 0.474 7.522 1.475l63.406 25.752c10.24 4.158 15.168 15.83 11.01 26.068-4.158 10.24-15.83 15.167-26.068 11.01l-63.406-25.752c-10.239-4.158-15.167-15.83-11.01-26.068 3.157-7.773 10.644-12.485 18.546-12.485zM496.753 721.864a19.946 19.946 0 0 1 7.776-1.582c7.802 0 15.215 4.59 18.44 12.23l27.434 64.955c4.3 10.18-0.467 21.918-10.648 26.217-10.183 4.299-21.92-0.467-26.217-10.648l-27.433-64.955c-4.3-10.18 0.468-21.918 10.648-26.217zM916.675 202.25800000000004c-23.939 24.434-54.676 40.053-88.026 45.03C821.645 369.83799999999997 722 467.982 598.812 472.707a202.19 202.19 0 0 1 0.762 17.345c0 110.18-89.638 199.816-199.817 199.816S199.94 600.233 199.94 490.053c0-56.262 22.967-108.317 62.912-145.645-33.985-18.2-57.158-54.059-57.158-95.232 0-1.676 0.039-3.355 0.118-5.031-66.42-18.163-114.362-79.391-114.362-149.852 0-85.654 69.745-155.34 155.475-155.34H806.11c40.853 0 79.538 16.08 108.928 45.28 29.591 29.397 45.89 68.352 45.89 109.686 0 40.734-15.715 79.208-44.253 108.339zM239.959 490.054c0 88.113 71.686 159.798 159.798 159.798 88.113 0 159.798-71.686 159.798-159.798 0-6.419-0.395-12.83-1.152-19.176-79.592-10.395-148.918-60.172-184.141-132.333-17.67 12.011-38.672 18.584-60.619 18.584-0.85 0-1.696-0.012-2.542-0.033-44.674 29.764-71.142 78.941-71.142 132.958z m646.876-477.432c-21.841-21.7-50.51-33.65-80.723-33.65H246.927c-63.663 0-115.457 51.733-115.457 115.32 0 57.347 42.757 106.452 99.455 114.225a20.012 20.012 0 0 1 16.724 24.552 68.228 68.228 0 0 0-1.935 16.107c0 34.076 25.219 62.364 57.97 67.198 1.01-0.156 2.025-0.242 3.036-0.242 2.081 0 4.146 0.328 6.119 0.96 0.27 0.002 0.535 0.02 0.805 0.02 20.524 0 39.736-9.135 52.71-25.064a20.007 20.007 0 1 1 34.44 6.14c27.649 80.568 103.49 134.7 188.72 134.7 110.011 0 199.51-89.457 199.51-199.41 0-0.838 0.02-1.657 0.041-2.473 0.014-0.545 0.035-1.088 0.024-1.647-0.224-10.998 8.47-20.114 19.465-20.41 30.166-0.812 58.411-13.135 79.534-34.697 21.166-21.605 32.823-50.134 32.823-80.333 0-30.594-12.102-59.466-34.076-81.296z"  horiz-adv-x="1024" />

    
    </font>
</defs>
</svg>
